<?xml version="1.0" encoding="UTF-8"?>
<!DOCTYPE svg PUBLIC "-//W3C//DTD SVG 1.1//EN" "http://www.w3.org/Graphics/SVG/1.1/DTD/svg11.dtd">
<!-- Creator: CorelDRAW X7 -->
<svg xmlns="http://www.w3.org/2000/svg" xml:space="preserve" width="3.09186in" height="1.66197in" version="1.1" style="shape-rendering:geometricPrecision; text-rendering:geometricPrecision; image-rendering:optimizeQuality; fill-rule:evenodd; clip-rule:evenodd"
viewBox="0 0 3092 1662"
 xmlns:xlink="http://www.w3.org/1999/xlink">
 <defs>
  <style type="text/css">
   <![CDATA[
    .fil1 {fill:#31B454}
    .fil0 {fill:#231F27}
    .fil2 {fill:#231F27}
   ]]>
  </style>
 </defs>
 <g id="Layer_x0020_1">
  <metadata id="CorelCorpID_0Corel-Layer"/>
  <g id="_475062600">
   <path class="fil0" d="M1561 0c205,0 371,137 371,307 0,170 -166,273 -371,273 -202,-4 -343,-70 -423,-198 43,-242 184,-369 423,-382zm-14 191c-118,12 -190,68 -217,168 36,32 108,49 217,53 109,-2 174,-34 176,-107 -7,-82 -86,-117 -176,-114z"/>
   <path class="fil1" d="M1123 463c60,174 228,271 400,271 143,0 238,-61 287,-155l160 100c-55,137 -221,236 -416,236 -242,0 -448,-162 -431,-445 0,-2 0,-4 0,-7z"/>
   <path class="fil2" d="M1134 1526c59,73 115,72 161,52 41,-19 63,-68 56,-122 -1,0 -3,0 -3,1 -27,65 -94,74 -147,60 -47,-13 -71,-47 -78,-93 -3,-17 -4,-35 -4,-52 -1,-71 0,-140 0,-212l84 0c0,6 1,13 1,20 0,57 0,114 0,171 0,12 1,25 3,37 6,45 34,63 80,51 37,-10 62,-44 64,-94 2,-53 2,-106 2,-159 0,-9 0,-17 0,-27l82 0c1,3 1,6 2,10 0,104 2,208 -1,312 -5,123 -109,198 -230,170 -41,-10 -77,-26 -107,-56 -8,-10 -10,-16 -1,-27 13,-12 23,-27 36,-42z"/>
   <path class="fil2" d="M629 1164l0 53c-26,-38 -64,-61 -105,-61 -78,0 -142,83 -142,187 0,103 64,187 142,187 41,0 79,-24 105,-62l0 62 85 0 0 -366 -85 0zm-81 289c-46,0 -84,-50 -84,-111 0,-61 37,-110 84,-110 46,0 84,49 84,110 0,61 -38,111 -84,111z"/>
   <path class="fil2" d="M2115 1164l0 53c-26,-38 -64,-61 -105,-61 -78,0 -142,83 -142,187 0,103 64,187 142,187 41,0 79,-24 105,-62l0 62 85 0 0 -366 -85 0zm-81 289c-46,0 -83,-50 -83,-111 0,-61 37,-110 83,-110 47,0 84,49 84,110 0,61 -38,111 -84,111z"/>
   <path class="fil2" d="M3007 1164l0 53c-26,-38 -64,-61 -106,-61 -78,0 -141,83 -141,187 0,103 63,187 141,187 42,0 79,-24 106,-62l0 62 85 0 0 -366 -85 0zm-81 289c-46,0 -84,-50 -84,-111 0,-61 38,-110 84,-110 47,0 84,49 84,110 0,61 -38,111 -84,111z"/>
   <polygon class="fil2" points="2263,1530 2350,1530 2350,1156 2263,1156 "/>
   <path class="fil1" d="M2361 1066c0,-29 -25,-53 -54,-53 -30,0 -54,24 -54,53 0,30 24,54 54,54 29,0 54,-24 54,-54z"/>
   <path class="fil2" d="M1692 1161c-41,0 -77,22 -104,56l0 -61 -85 0 0 506 85 0 0 -188c27,35 63,56 104,56 80,0 145,-82 145,-184 0,-102 -65,-185 -145,-185zm-24 292c-36,0 -67,-28 -80,-68l0 -78c13,-40 44,-68 80,-68 47,0 86,48 86,107 0,59 -39,107 -86,107l0 0z"/>
   <path class="fil2" d="M1009 1288l0 0 61 -32c-1,-28 -20,-54 -44,-69 -23,-15 -52,-21 -81,-24 -45,-5 -94,-1 -131,24 -38,26 -60,79 -39,120 18,33 56,49 93,55 37,7 76,10 109,27 8,4 17,10 17,19 1,10 -6,17 -12,23 -43,36 -108,30 -145,-13 -10,-13 -18,-27 -21,-43l-67 35c-14,8 38,73 45,78 50,44 125,51 186,31 43,-15 84,-47 93,-92 5,-28 -3,-58 -22,-80 -21,-22 -52,-33 -82,-39 -31,-7 -61,-9 -91,-18 -13,-4 -27,-12 -27,-26 1,-12 14,-20 26,-24 25,-8 52,-11 77,-4 25,7 48,27 55,52z"/>
   <path class="fil2" d="M2656 1288l0 0 61 -32c-1,-28 -20,-54 -44,-69 -24,-15 -52,-21 -81,-24 -45,-5 -94,-1 -132,24 -37,26 -59,79 -38,120 18,33 56,49 93,55 37,7 76,10 109,27 8,4 17,10 17,19 1,10 -6,17 -12,23 -44,36 -109,30 -145,-13 -10,-13 -18,-27 -21,-43l-68 35c-14,8 39,73 45,78 50,44 126,51 187,31 43,-15 84,-47 93,-92 5,-28 -3,-58 -23,-80 -21,-22 -52,-33 -82,-39 -31,-7 -61,-8 -90,-17 -13,-4 -27,-13 -27,-26 1,-13 14,-20 26,-24 25,-8 52,-12 77,-5 25,8 48,27 55,52z"/>
   <path class="fil2" d="M309 1219c0,0 -63,-97 -201,-48 0,0 -74,20 -108,139 0,0 69,110 237,75 0,0 143,-38 72,-166zm-90 97c-28,13 -70,10 -100,2 -2,-1 -40,-14 -38,-18 28,-51 101,-99 152,-46 5,5 9,12 11,18 4,19 -9,37 -25,44l0 0z"/>
   <path class="fil1" d="M1 1346c0,0 -17,130 104,173 121,42 216,-36 244,-84l-69 -41c0,0 -54,111 -208,39 0,0 -57,-33 -71,-87z"/>
  </g>
 </g>
</svg>
