<?xml version="1.0" encoding="utf-8"?>
<!-- Generator: Adobe Illustrator 27.5.0, SVG Export Plug-In . SVG Version: 6.00 Build 0)  -->
<svg version="1.1" xmlns="http://www.w3.org/2000/svg" xmlns:xlink="http://www.w3.org/1999/xlink" x="0px" y="0px"
	 viewBox="0 0 800 800" style="enable-background:new 0 0 800 800;" xml:space="preserve">
<g id="_x36_">
	<rect x="20.114" y="20.109" style="fill-rule:evenodd;clip-rule:evenodd;fill:#FEFEFE;" width="759.779" height="759.783"/>
	<path style="fill-rule:evenodd;clip-rule:evenodd;fill:#E4E5E6;" d="M20.114,511.943
		c146.258,146.478,533.33-153.988,759.779,72.467C561.617,388.442,166.372,691.119,20.114,544.863V511.943z"/>
	<path style="fill-rule:evenodd;clip-rule:evenodd;fill:#1F8E14;" d="M20.114,544.863
		c146.258,146.256,541.503-156.421,759.779,39.547C534.658,442.795,271.758,785.894,20.114,640.527V544.863z"/>
	<path style="fill-rule:evenodd;clip-rule:evenodd;fill:#0E6322;" d="M20.114,585.734c203.038,154.432,541.283-155.09,759.779-1.324
		C608.449,495.594,368.74,756.295,20.114,668.803V585.734z"/>
	<path style="fill-rule:evenodd;clip-rule:evenodd;fill:#004510;" d="M20.114,640.527C342.893,771.754,629,476.816,779.893,584.41
		C595.42,520.117,368.74,790.098,20.114,702.613V640.527z"/>
	<path style="fill-rule:evenodd;clip-rule:evenodd;fill:#C6C6CB;" d="M779.893,698.412c-65.615,9.057-131.232,5.967-182.266-45.074
		c49.709,44.633,115.767,42.867,182.266,30.932V698.412z"/>
	<path style="fill-rule:evenodd;clip-rule:evenodd;fill:#1F8E14;" d="M779.893,684.269
		c-66.498,11.936-132.557,13.701-182.266-30.932c59.428,34.25,120.631,17.674,182.266-5.525V684.269z"/>
	<path style="fill-rule:evenodd;clip-rule:evenodd;fill:#0E6322;" d="M779.893,661.953c-65.615,17.461-130.129,28.063-182.266-8.615
		c49.488,25.635,109.357-0.883,182.266-25.627V661.953z"/>
	<path style="fill-rule:evenodd;clip-rule:evenodd;fill:#004510;" d="M779.893,630.58c-75.777,25.193-138.965,53.689-182.266,22.758
		c52.578,18.344,111.352-12.148,182.266-39.549V630.58z"/>
	<g>
		<g>
			<path style="fill-rule:evenodd;clip-rule:evenodd;fill:#FEFEFE;" d="M195.35,653.529l11.742-19.779l-0.384,0.127l22.463,5.104
				l-15.061-17.229v0.256l11.741-19.781l-20.8,8.934h-0.255l0,0l-14.806-17.106l1.914,22.465c0,0.127-0.129,0.256-0.129,0.383
				l-20.674,8.807l22.203,5.106l0,0L195.35,653.529z M136.256,581.676c-13.785,13.404-22.464,32.164-22.464,52.84
				c0,40.455,33.06,73.51,73.518,73.51c16.977,0,32.673-5.742,45.182-15.565v-0.133v-0.123
				c-13.146,25.01-39.442,42.113-69.56,42.113c-43.138,0-78.366-35.223-78.366-78.492c0-33.818,21.571-62.789,51.69-73.766V581.676z
				"/>
			<path style="fill-rule:evenodd;clip-rule:evenodd;fill:#FEFEFE;" d="M195.235,653.403l11.742-19.779l-0.383,0.127l22.462,5.104
				l-15.06-17.229v0.256l11.741-19.781l-20.8,8.934h-0.254l0,0l-14.806-17.105l1.914,22.465c0,0.127-0.128,0.256-0.128,0.383
				l-20.674,8.807l22.203,5.105l0,0L195.235,653.403z M136.142,581.55c-13.785,13.404-22.464,32.164-22.464,52.84
				c0,40.455,33.061,73.51,73.518,73.51c16.977,0,32.674-5.742,45.182-15.564v-0.133v-0.124
				c-13.146,25.011-39.442,42.114-69.559,42.114c-43.138,0-78.366-35.223-78.366-78.492c0-33.818,21.571-62.789,51.69-73.766V581.55
				z"/>
			<path style="fill-rule:evenodd;clip-rule:evenodd;fill:#FDFDFD;" d="M195.121,653.277l11.742-19.779l-0.383,0.127l22.463,5.104
				L213.881,621.5v0.256l11.741-19.781l-20.8,8.934h-0.255l0,0l-14.806-17.106l1.914,22.465c0,0.127-0.129,0.256-0.129,0.384
				l-20.674,8.806l22.202,5.106l0,0L195.121,653.277z M136.027,581.424c-13.785,13.404-22.464,32.164-22.464,52.84
				c0,40.455,33.06,73.51,73.518,73.51c16.977,0,32.673-5.742,45.182-15.564v-0.133v-0.122
				c-13.146,25.009-39.442,42.112-69.56,42.112c-43.138,0-78.366-35.223-78.366-78.492c0-33.818,21.571-62.789,51.69-73.766V581.424
				z"/>
			<path style="fill-rule:evenodd;clip-rule:evenodd;fill:#FDFDFD;" d="M195.006,653.151l11.742-19.779l-0.384,0.128l22.463,5.102
				l-15.061-17.228v0.257l11.741-19.782l-20.8,8.934h-0.255l0,0l-14.805-17.105l1.914,22.465c0,0.127-0.129,0.256-0.129,0.383
				l-20.674,8.807l22.203,5.105l0,0L195.006,653.151z M135.913,581.298c-13.785,13.404-22.464,32.164-22.464,52.84
				c0,40.455,33.061,73.51,73.518,73.51c16.977,0,32.673-5.742,45.182-15.565v-0.133v-0.122
				c-13.147,25.009-39.442,42.113-69.56,42.113c-43.138,0-78.366-35.224-78.366-78.493c0-33.817,21.571-62.789,51.69-73.766V581.298
				z"/>
			<path style="fill-rule:evenodd;clip-rule:evenodd;fill:#FCFCFC;" d="M194.892,653.025l11.743-19.778l-0.384,0.126l22.463,5.104
				l-15.061-17.228v0.255l11.741-19.78l-20.8,8.933h-0.254l0,0l-14.806-17.106l1.914,22.465c0,0.127-0.129,0.257-0.129,0.383
				l-20.674,8.807l22.203,5.106l0,0L194.892,653.025z M135.799,581.172c-13.786,13.404-22.464,32.165-22.464,52.841
				c0,40.454,33.061,73.509,73.518,73.509c16.977,0,32.674-5.742,45.183-15.563v-0.133v-0.123
				c-13.146,25.009-39.442,42.113-69.56,42.113c-43.138,0-78.366-35.223-78.366-78.493c0-33.818,21.571-62.789,51.69-73.766V581.172
				z"/>
			<path style="fill-rule:evenodd;clip-rule:evenodd;fill:#FCFCFC;" d="M194.777,652.9l11.743-19.779l-0.384,0.127l22.462,5.104
				l-15.06-17.229v0.256l11.741-19.781l-20.8,8.934h-0.255l0,0l-14.806-17.106l1.914,22.465c0,0.127-0.129,0.256-0.129,0.383
				l-20.674,8.806l22.203,5.106l0,0L194.777,652.9z M135.684,581.047c-13.785,13.404-22.464,32.164-22.464,52.84
				c0,40.455,33.061,73.51,73.518,73.51c16.977,0,32.674-5.742,45.182-15.565v-0.133v-0.123
				c-13.146,25.01-39.442,42.113-69.56,42.113c-43.138,0-78.367-35.223-78.367-78.492c0-33.818,21.571-62.789,51.69-73.766V581.047z
				"/>
			<path style="fill-rule:evenodd;clip-rule:evenodd;fill:#FBFCFC;" d="M194.663,652.774l11.743-19.779l-0.384,0.127l22.463,5.104
				l-15.06-17.229v0.256l11.741-19.781l-20.8,8.934h-0.255l0,0L189.305,593.3l1.914,22.465c0,0.127-0.129,0.256-0.129,0.383
				l-20.674,8.807l22.203,5.105l0,0L194.663,652.774z M135.57,580.921c-13.785,13.404-22.464,32.164-22.464,52.84
				c0,40.455,33.061,73.51,73.517,73.51c16.977,0,32.673-5.742,45.182-15.564v-0.133v-0.123
				c-13.146,25.01-39.442,42.113-69.56,42.113c-43.137,0-78.366-35.223-78.366-78.492c0-33.818,21.571-62.789,51.69-73.766V580.921z
				"/>
			<path style="fill-rule:evenodd;clip-rule:evenodd;fill:#FBFBFB;" d="M194.549,652.648l11.742-19.779l-0.384,0.127l22.463,5.104
				l-15.061-17.229v0.256l11.741-19.781l-20.8,8.934h-0.255l0,0l-14.806-17.105l1.914,22.465c0,0.127-0.129,0.256-0.129,0.383
				l-20.674,8.807l22.203,5.105l0,0L194.549,652.648z M135.456,580.795c-13.785,13.404-22.463,32.164-22.463,52.84
				c0,40.455,33.06,73.51,73.517,73.51c16.978,0,32.674-5.742,45.183-15.564v-0.133v-0.123
				c-13.146,25.01-39.442,42.113-69.56,42.113c-43.138,0-78.366-35.223-78.366-78.492c0-33.818,21.571-62.789,51.69-73.766V580.795z
				"/>
			<path style="fill-rule:evenodd;clip-rule:evenodd;fill:#FBFBFB;" d="M194.434,652.523l11.742-19.779l-0.383,0.127l22.463,5.103
				l-15.061-17.228v0.256l11.741-19.781l-20.8,8.934h-0.254l0,0l-14.806-17.105l1.914,22.465c0,0.127-0.129,0.256-0.129,0.383
				l-20.674,8.807l22.203,5.106l0,0L194.434,652.523z M135.341,580.669c-13.786,13.404-22.464,32.164-22.464,52.84
				c0,40.455,33.061,73.51,73.518,73.51c16.977,0,32.674-5.742,45.183-15.565v-0.133v-0.123
				c-13.146,25.01-39.443,42.113-69.56,42.113c-43.138,0-78.367-35.223-78.367-78.491c0-33.819,21.572-62.79,51.691-73.767V580.669z
				"/>
			<path style="fill-rule:evenodd;clip-rule:evenodd;fill:#FAFAFA;" d="M194.32,652.398l11.742-19.78l-0.384,0.127l22.463,5.104
				l-15.061-17.229v0.256l11.741-19.781l-20.8,8.933h-0.255l0,0l-14.806-17.105l1.915,22.465c0,0.127-0.129,0.256-0.129,0.383
				l-20.674,8.808l22.203,5.104l0,0L194.32,652.398z M135.227,580.543c-13.786,13.404-22.464,32.164-22.464,52.84
				c0,40.456,33.061,73.51,73.518,73.51c16.977,0,32.674-5.742,45.182-15.564v-0.133v-0.123
				c-13.146,25.01-39.442,42.113-69.56,42.113c-43.137,0-78.366-35.223-78.366-78.492c0-33.818,21.571-62.789,51.69-73.766V580.543z
				"/>
			<path style="fill-rule:evenodd;clip-rule:evenodd;fill:#FAFAFA;" d="M194.206,652.271l11.742-19.779l-0.384,0.127l22.463,5.103
				l-15.06-17.228v0.256l11.741-19.781l-20.8,8.933h-0.254l0,0l-14.806-17.105l1.914,22.464c0,0.128-0.129,0.257-0.129,0.384
				l-20.674,8.806l22.203,5.106l0,0L194.206,652.271z M135.113,580.418c-13.786,13.404-22.464,32.164-22.464,52.839
				c0,40.455,33.061,73.511,73.518,73.511c16.977,0,32.673-5.742,45.182-15.564v-0.133v-0.123
				c-13.146,25.009-39.442,42.112-69.56,42.112c-43.138,0-78.366-35.223-78.366-78.491c0-33.818,21.571-62.79,51.691-73.766V580.418
				z"/>
			<path style="fill-rule:evenodd;clip-rule:evenodd;fill:#F9FAFA;" d="M194.091,652.146l11.743-19.779l-0.384,0.127l22.463,5.102
				l-15.06-17.229v0.257l11.741-19.782l-20.8,8.935h-0.255l0,0l-14.806-17.106l1.914,22.464c0,0.128-0.129,0.256-0.129,0.384
				l-20.674,8.807l22.203,5.106l0,0L194.091,652.146z M134.998,580.291c-13.785,13.404-22.464,32.165-22.464,52.84
				c0,40.456,33.06,73.511,73.518,73.511c16.977,0,32.673-5.742,45.182-15.565v-0.134v-0.122
				c-13.146,25.009-39.443,42.112-69.56,42.112c-43.138,0-78.366-35.222-78.366-78.491c0-33.818,21.571-62.789,51.69-73.767V580.291
				z"/>
			<path style="fill-rule:evenodd;clip-rule:evenodd;fill:#F9F9F9;" d="M193.977,652.019l11.742-19.779l-0.383,0.127l22.463,5.104
				l-15.061-17.229v0.256l11.741-19.781l-20.799,8.934h-0.255l0,0l-14.806-17.105l1.914,22.465c0,0.127-0.128,0.256-0.128,0.383
				l-20.675,8.807l22.203,5.105l0,0L193.977,652.019z M134.884,580.166c-13.785,13.404-22.464,32.164-22.464,52.84
				c0,40.455,33.061,73.51,73.518,73.51c16.977,0,32.673-5.742,45.182-15.564v-0.133v-0.123
				c-13.147,25.01-39.442,42.113-69.561,42.113c-43.137,0-78.366-35.223-78.366-78.492c0-33.818,21.571-62.789,51.69-73.766V580.166
				z"/>
			<path style="fill-rule:evenodd;clip-rule:evenodd;fill:#F9F9F9;" d="M193.862,651.894l11.742-19.779l-0.384,0.127l22.463,5.104
				l-15.061-17.229v0.256l11.741-19.781l-20.8,8.934h-0.255l0,0l-14.806-17.106l1.914,22.465c0,0.127-0.129,0.256-0.129,0.383
				l-20.674,8.807l22.203,5.106l0,0L193.862,651.894z M134.77,580.04c-13.786,13.404-22.464,32.164-22.464,52.84
				c0,40.455,33.061,73.51,73.518,73.51c16.977,0,32.673-5.742,45.182-15.564v-0.133v-0.123
				c-13.146,25.01-39.442,42.113-69.56,42.113c-43.138,0-78.367-35.223-78.367-78.492c0-33.818,21.572-62.789,51.691-73.766V580.04z
				"/>
			<path style="fill-rule:evenodd;clip-rule:evenodd;fill:#F8F8F8;" d="M193.748,651.769l11.742-19.78l-0.384,0.127l22.463,5.104
				l-15.06-17.229v0.256l11.741-19.781l-20.8,8.934h-0.255l0,0l-14.806-17.105l1.914,22.465c0,0.127-0.129,0.256-0.129,0.383
				l-20.674,8.807l22.203,5.105l0,0L193.748,651.769z M134.655,579.914c-13.786,13.404-22.464,32.164-22.464,52.84
				c0,40.455,33.061,73.51,73.518,73.51c16.977,0,32.673-5.742,45.182-15.564v-0.133v-0.123
				c-13.146,25.01-39.442,42.113-69.56,42.113c-43.138,0-78.366-35.223-78.366-78.491c0-33.819,21.571-62.79,51.691-73.767V579.914z
				"/>
			<path style="fill-rule:evenodd;clip-rule:evenodd;fill:#F8F8F8;" d="M193.633,651.643l11.743-19.78l-0.384,0.127l22.463,5.103
				l-15.061-17.228v0.256l11.741-19.781l-20.8,8.934h-0.255l0,0l-14.806-17.104l1.914,22.464c0,0.127-0.129,0.256-0.129,0.383
				l-20.674,8.807l22.203,5.106l0,0L193.633,651.643z M134.54,579.788c-13.785,13.404-22.464,32.164-22.464,52.84
				c0,40.455,33.061,73.51,73.517,73.51c16.977,0,32.673-5.742,45.182-15.563v-0.134v-0.123
				c-13.146,25.01-39.442,42.113-69.561,42.113c-43.137,0-78.366-35.222-78.366-78.492c0-33.818,21.572-62.789,51.691-73.766
				V579.788z"/>
			<path style="fill-rule:evenodd;clip-rule:evenodd;fill:#F7F7F8;" d="M193.519,651.516l11.743-19.779l-0.384,0.127l22.463,5.104
				l-15.061-17.229v0.256l11.741-19.781l-20.799,8.934h-0.255l0,0l-14.805-17.104l1.914,22.464c0,0.127-0.129,0.256-0.129,0.383
				l-20.675,8.807l22.203,5.105l0,0L193.519,651.516z M134.426,579.662c-13.785,13.404-22.463,32.164-22.463,52.84
				c0,40.455,33.06,73.51,73.517,73.51c16.978,0,32.673-5.742,45.182-15.564v-0.134v-0.122
				c-13.146,25.009-39.442,42.112-69.56,42.112c-43.138,0-78.366-35.223-78.366-78.491c0-33.819,21.571-62.79,51.69-73.767V579.662z
				"/>
			<path style="fill-rule:evenodd;clip-rule:evenodd;fill:#F7F7F7;" d="M193.405,651.391l11.743-19.779l-0.384,0.126l22.463,5.104
				l-15.061-17.229v0.256l11.741-19.781l-20.8,8.934h-0.254l0,0l-14.806-17.105l1.913,22.465c0,0.127-0.129,0.255-0.129,0.383
				l-20.674,8.807l22.203,5.105l0,0L193.405,651.391z M134.312,579.537c-13.785,13.404-22.464,32.163-22.464,52.84
				c0,40.455,33.061,73.509,73.518,73.509c16.978,0,32.674-5.741,45.182-15.563v-0.134v-0.122
				c-13.146,25.01-39.442,42.113-69.56,42.113c-43.138,0-78.366-35.224-78.366-78.492c0-33.818,21.571-62.79,51.691-73.766V579.537z
				"/>
			<path style="fill-rule:evenodd;clip-rule:evenodd;fill:#F6F7F7;" d="M193.29,651.265l11.743-19.78l-0.384,0.128l22.463,5.102
				l-15.061-17.227v0.255l11.741-19.78l-20.8,8.934h-0.255l0,0l-14.806-17.106l1.915,22.464c0,0.128-0.129,0.257-0.129,0.384
				l-20.674,8.806l22.203,5.106l0,0L193.29,651.265z M134.197,579.411c-13.785,13.404-22.464,32.163-22.464,52.84
				c0,40.454,33.061,73.51,73.518,73.51c16.977,0,32.673-5.743,45.182-15.565v-0.132v-0.123
				c-13.147,25.01-39.442,42.113-69.56,42.113c-43.138,0-78.366-35.223-78.366-78.492c0-33.819,21.571-62.79,51.69-73.766V579.411z"
				/>
			<path style="fill-rule:evenodd;clip-rule:evenodd;fill:#F6F6F7;" d="M193.176,651.139l11.743-19.779l-0.384,0.127l22.463,5.103
				l-15.06-17.228v0.256l11.741-19.781l-20.8,8.934h-0.255l0,0l-14.806-17.105l1.913,22.465c0,0.127-0.129,0.256-0.129,0.383
				l-20.674,8.807l22.203,5.105l0,0L193.176,651.139z M134.083,579.285c-13.785,13.404-22.464,32.164-22.464,52.84
				c0,40.455,33.061,73.51,73.518,73.51c16.977,0,32.673-5.742,45.182-15.565v-0.133v-0.123
				c-13.146,25.01-39.442,42.113-69.56,42.113c-43.138,0-78.366-35.223-78.366-78.492c0-33.818,21.571-62.789,51.69-73.766V579.285z
				"/>
			<path style="fill-rule:evenodd;clip-rule:evenodd;fill:#F6F6F6;" d="M193.062,651.013l11.743-19.779l-0.384,0.127l22.463,5.104
				l-15.061-17.229v0.256l11.741-19.781l-20.8,8.934h-0.255l0,0l-14.805-17.104l1.914,22.464c0,0.127-0.128,0.256-0.128,0.383
				l-20.674,8.807l22.203,5.106l0,0L193.062,651.013z M133.968,579.159c-13.785,13.404-22.463,32.164-22.463,52.84
				c0,40.455,33.061,73.51,73.517,73.51c16.977,0,32.673-5.742,45.182-15.565v-0.133v-0.123
				c-13.146,25.01-39.442,42.113-69.56,42.113c-43.137,0-78.366-35.223-78.366-78.491c0-33.819,21.572-62.79,51.691-73.767V579.159z
				"/>
			<path style="fill-rule:evenodd;clip-rule:evenodd;fill:#F5F5F6;" d="M192.947,650.887l11.742-19.779l-0.384,0.127l22.463,5.104
				l-15.061-17.229v0.256l11.741-19.781l-20.8,8.934h-0.255l0,0l-14.806-17.105l1.914,22.465c0,0.127-0.129,0.256-0.129,0.383
				l-20.674,8.807l22.202,5.105l0,0L192.947,650.887z M133.855,579.033c-13.785,13.404-22.464,32.164-22.464,52.84
				c0,40.455,33.061,73.51,73.518,73.51c16.977,0,32.673-5.742,45.182-15.564v-0.133v-0.123
				c-13.147,25.01-39.442,42.113-69.559,42.113c-43.138,0-78.366-35.223-78.366-78.492c0-33.818,21.571-62.789,51.69-73.766V579.033
				z"/>
			<path style="fill-rule:evenodd;clip-rule:evenodd;fill:#F5F5F5;" d="M192.833,650.762l11.742-19.78l-0.384,0.127l22.463,5.104
				l-15.061-17.229v0.257l11.741-19.782l-20.8,8.934h-0.255l0,0l-14.806-17.104l1.914,22.464c0,0.127-0.129,0.256-0.129,0.383
				l-20.675,8.807l22.204,5.105l0,0L192.833,650.762z M133.74,578.908c-13.785,13.403-22.464,32.163-22.464,52.839
				c0,40.455,33.06,73.51,73.517,73.51c16.978,0,32.674-5.742,45.182-15.564v-0.133v-0.122
				c-13.146,25.009-39.442,42.112-69.56,42.112c-43.138,0-78.366-35.223-78.366-78.491c0-33.818,21.571-62.79,51.69-73.767V578.908z
				"/>
			<path style="fill-rule:evenodd;clip-rule:evenodd;fill:#F4F5F5;" d="M192.719,650.636l11.742-19.78l-0.384,0.128l22.463,5.102
				l-15.06-17.228v0.256l11.741-19.78l-20.8,8.933h-0.255l0,0l-14.806-17.105l1.914,22.464c0,0.128-0.129,0.256-0.129,0.383
				l-20.674,8.807l22.203,5.105l0,0L192.719,650.636z M133.626,578.781c-13.785,13.405-22.464,32.164-22.464,52.84
				c0,40.455,33.06,73.511,73.517,73.511c16.977,0,32.674-5.742,45.182-15.565v-0.133v-0.123
				c-13.146,25.01-39.442,42.113-69.56,42.113c-43.137,0-78.366-35.223-78.366-78.491c0-33.819,21.572-62.79,51.691-73.766V578.781z
				"/>
			<path style="fill-rule:evenodd;clip-rule:evenodd;fill:#F4F4F5;" d="M192.604,650.51l11.742-19.78l-0.383,0.128l22.463,5.103
				l-15.06-17.228v0.256l11.741-19.782l-20.8,8.935h-0.255l0,0l-14.806-17.105l1.914,22.465c0,0.127-0.128,0.256-0.128,0.382
				l-20.675,8.807l22.203,5.106l0,0L192.604,650.51z M133.511,578.655c-13.785,13.405-22.464,32.165-22.464,52.841
				c0,40.455,33.06,73.51,73.517,73.51c16.977,0,32.673-5.743,45.182-15.565v-0.132v-0.123
				c-13.146,25.01-39.442,42.112-69.56,42.112c-43.138,0-78.367-35.222-78.367-78.491c0-33.818,21.572-62.79,51.691-73.766V578.655z
				"/>
			<path style="fill-rule:evenodd;clip-rule:evenodd;fill:#F3F4F4;" d="M192.49,650.384l11.742-19.779l-0.383,0.126l22.463,5.103
				l-15.06-17.228v0.255l11.741-19.78l-20.8,8.933h-0.255l0,0l-14.805-17.103l1.914,22.463c0,0.128-0.129,0.257-0.129,0.383
				l-20.674,8.808l22.203,5.105l0,0L192.49,650.384z M133.397,578.53c-13.785,13.404-22.464,32.164-22.464,52.84
				c0,40.455,33.061,73.509,73.518,73.509c16.977,0,32.673-5.741,45.182-15.564v-0.132v-0.123
				c-13.147,25.01-39.443,42.113-69.56,42.113c-43.138,0-78.366-35.223-78.366-78.492c0-33.819,21.571-62.79,51.691-73.766V578.53z"
				/>
			<path style="fill-rule:evenodd;clip-rule:evenodd;fill:#F3F3F4;" d="M192.375,650.258l11.742-19.779l-0.384,0.127l22.464,5.103
				l-15.061-17.228v0.256l11.741-19.781l-20.8,8.934h-0.255l0,0l-14.806-17.105l1.914,22.465c0,0.127-0.129,0.256-0.129,0.383
				l-20.674,8.807l22.203,5.106l0,0L192.375,650.258z M133.282,578.404c-13.785,13.404-22.464,32.164-22.464,52.84
				c0,40.455,33.06,73.51,73.517,73.51c16.978,0,32.673-5.742,45.182-15.564v-0.133v-0.123
				c-13.146,25.01-39.442,42.113-69.56,42.113c-43.138,0-78.366-35.223-78.366-78.492c0-33.818,21.571-62.789,51.69-73.766V578.404z
				"/>
			<path style="fill-rule:evenodd;clip-rule:evenodd;fill:#F3F3F3;" d="M192.261,650.133l11.742-19.78l-0.384,0.127l22.464,5.104
				l-15.061-17.229v0.256l11.741-19.781l-20.8,8.934h-0.255l0,0l-14.806-17.105l1.914,22.465c0,0.127-0.129,0.256-0.129,0.383
				l-20.674,8.807l22.203,5.105l0,0L192.261,650.133z M133.168,578.278c-13.785,13.404-22.464,32.164-22.464,52.84
				c0,40.455,33.061,73.51,73.517,73.51c16.977,0,32.673-5.742,45.182-15.564v-0.133v-0.123
				c-13.146,25.01-39.442,42.113-69.56,42.113c-43.138,0-78.366-35.223-78.366-78.492c0-33.818,21.571-62.789,51.69-73.766V578.278z
				"/>
			<path style="fill-rule:evenodd;clip-rule:evenodd;fill:#F2F3F3;" d="M192.146,650.006l11.742-19.779l-0.384,0.127l22.463,5.103
				l-15.06-17.228v0.256l11.74-19.781l-20.8,8.934h-0.255l0,0l-14.806-17.104l1.914,22.464c0,0.127-0.129,0.256-0.129,0.383
				l-20.674,8.807l22.203,5.106l0,0L192.146,650.006z M133.054,578.152c-13.785,13.404-22.464,32.164-22.464,52.84
				c0,40.455,33.06,73.51,73.517,73.51c16.978,0,32.674-5.742,45.182-15.565v-0.133v-0.123
				c-13.146,25.01-39.442,42.113-69.56,42.113c-43.138,0-78.366-35.223-78.366-78.492c0-33.818,21.571-62.789,51.69-73.766V578.152z
				"/>
			<path style="fill-rule:evenodd;clip-rule:evenodd;fill:#F2F2F3;" d="M192.032,649.881l11.742-19.779l-0.384,0.126l22.463,5.104
				l-15.06-17.229v0.257l11.74-19.781l-20.8,8.933h-0.255l0,0l-14.806-17.104l1.914,22.464c0,0.127-0.129,0.256-0.129,0.384
				l-20.674,8.806l22.203,5.105l0,0L192.032,649.881z M132.939,578.026c-13.785,13.404-22.464,32.165-22.464,52.84
				c0,40.455,33.061,73.511,73.517,73.511c16.978,0,32.674-5.743,45.182-15.565v-0.133v-0.122
				c-13.146,25.009-39.442,42.112-69.56,42.112c-43.137,0-78.366-35.222-78.366-78.491c0-33.818,21.572-62.79,51.691-73.767V578.026
				z"/>
			<path style="fill-rule:evenodd;clip-rule:evenodd;fill:#F1F2F2;" d="M191.918,649.755l11.742-19.78l-0.384,0.127l22.464,5.103
				l-15.062-17.228v0.256l11.741-19.781l-20.8,8.934h-0.255l0,0l-14.806-17.105l1.915,22.464c0,0.128-0.129,0.256-0.129,0.383
				l-20.674,8.808l22.203,5.105l0,0L191.918,649.755z M132.825,577.9c-13.785,13.404-22.464,32.164-22.464,52.84
				c0,40.455,33.061,73.51,73.518,73.51c16.978,0,32.674-5.742,45.182-15.565v-0.133v-0.123
				c-13.147,25.01-39.442,42.113-69.56,42.113c-43.138,0-78.367-35.223-78.367-78.491c0-33.819,21.572-62.789,51.691-73.767V577.9z"
				/>
			<path style="fill-rule:evenodd;clip-rule:evenodd;fill:#F1F1F2;" d="M191.804,649.629l11.742-19.779l-0.384,0.127l22.463,5.103
				l-15.061-17.228v0.256l11.74-19.781l-20.799,8.933h-0.255l0,0l-14.806-17.104l1.915,22.465c0,0.127-0.129,0.256-0.129,0.383
				l-20.674,8.807l22.203,5.106l0,0L191.804,649.629z M132.71,577.775c-13.784,13.404-22.464,32.164-22.464,52.84
				c0,40.455,33.06,73.51,73.518,73.51c16.978,0,32.674-5.742,45.182-15.565v-0.133v-0.123
				c-13.146,25.01-39.442,42.113-69.56,42.113c-43.138,0-78.366-35.223-78.366-78.492c0-33.818,21.572-62.789,51.691-73.766V577.775
				z"/>
			<path style="fill-rule:evenodd;clip-rule:evenodd;fill:#F0F1F1;" d="M191.689,649.504l11.743-19.78l-0.384,0.127l22.463,5.104
				l-15.061-17.229v0.256l11.741-19.78l-20.8,8.934h-0.254l0,0l-14.806-17.105l1.914,22.464c0,0.128-0.129,0.256-0.129,0.384
				l-20.674,8.807l22.203,5.105l0,0L191.689,649.504z M132.596,577.649c-13.786,13.404-22.464,32.164-22.464,52.839
				c0,40.456,33.061,73.511,73.517,73.511c16.977,0,32.674-5.742,45.182-15.564v-0.134v-0.123
				c-13.146,25.011-39.442,42.114-69.56,42.114c-43.138,0-78.366-35.223-78.366-78.491c0-33.82,21.571-62.79,51.691-73.767V577.649z
				"/>
			<path style="fill-rule:evenodd;clip-rule:evenodd;fill:#F0F1F1;" d="M191.575,649.377l11.742-19.779l-0.384,0.127l22.464,5.104
				L210.336,617.6v0.256l11.74-19.781l-20.799,8.934h-0.256l0,0l-14.806-17.104l1.915,22.464c0,0.127-0.129,0.256-0.129,0.383
				l-20.674,8.807l22.203,5.106l0,0L191.575,649.377z M132.481,577.523c-13.785,13.404-22.464,32.164-22.464,52.84
				c0,40.455,33.06,73.51,73.517,73.51c16.977,0,32.674-5.742,45.182-15.564v-0.133v-0.123
				c-13.146,25.01-39.442,42.113-69.56,42.113c-43.138,0-78.366-35.223-78.366-78.492c0-33.818,21.571-62.789,51.69-73.766V577.523z
				"/>
			<path style="fill-rule:evenodd;clip-rule:evenodd;fill:#F0F0F1;" d="M191.46,649.252l11.742-19.78l-0.384,0.127l22.464,5.104
				l-15.061-17.229v0.256l11.74-19.781l-20.8,8.934h-0.254l0,0l-14.806-17.104l1.914,22.464c0,0.127-0.129,0.256-0.129,0.383
				l-20.674,8.807l22.203,5.105l0,0L191.46,649.252z M132.367,577.398c-13.785,13.404-22.464,32.164-22.464,52.84
				c0,40.455,33.061,73.51,73.517,73.51c16.978,0,32.674-5.742,45.183-15.564v-0.133v-0.123
				c-13.146,25.01-39.442,42.113-69.559,42.113c-43.138,0-78.366-35.223-78.366-78.491c0-33.819,21.571-62.79,51.69-73.767V577.398z
				"/>
			<path style="fill-rule:evenodd;clip-rule:evenodd;fill:#EFF0F0;" d="M191.346,649.126l11.742-19.78l-0.384,0.127l22.464,5.103
				l-15.061-17.228v0.256l11.74-19.781l-20.8,8.934h-0.255l0,0l-14.806-17.104l1.914,22.464c0,0.127-0.129,0.256-0.129,0.383
				l-20.674,8.807l22.204,5.106l0,0L191.346,649.126z M132.253,577.271c-13.785,13.404-22.464,32.164-22.464,52.84
				c0,40.455,33.061,73.51,73.517,73.51c16.978,0,32.674-5.742,45.183-15.565v-0.133v-0.123
				c-13.146,25.01-39.442,42.113-69.56,42.113c-43.138,0-78.367-35.223-78.367-78.491c0-33.819,21.572-62.79,51.691-73.767V577.271z
				"/>
			<path style="fill-rule:evenodd;clip-rule:evenodd;fill:#EFEFF0;" d="M191.231,649l11.742-19.78l-0.384,0.127l22.464,5.104
				l-15.061-17.229v0.257l11.74-19.781l-20.8,8.933h-0.255l0,0l-14.806-17.104l1.914,22.465c0,0.126-0.129,0.255-0.129,0.382
				l-20.674,8.808l22.204,5.106l0,0L191.231,649z M132.139,577.146c-13.785,13.404-22.464,32.164-22.464,52.84
				c0,40.456,33.06,73.51,73.518,73.51c16.977,0,32.673-5.742,45.182-15.564v-0.133v-0.123
				c-13.146,25.01-39.442,42.113-69.56,42.113c-43.137,0-78.366-35.222-78.366-78.491c0-33.818,21.571-62.789,51.691-73.767V577.146
				z"/>
			<path style="fill-rule:evenodd;clip-rule:evenodd;fill:#EEEFEF;" d="M191.117,648.874l11.742-19.78l-0.384,0.127l22.463,5.104
				l-15.061-17.229v0.256l11.741-19.781l-20.8,8.935h-0.255l0,0l-14.806-17.105l1.914,22.464c0,0.128-0.129,0.256-0.129,0.384
				l-20.674,8.806l22.203,5.106l0,0L191.117,648.874z M132.024,577.021c-13.786,13.403-22.464,32.163-22.464,52.839
				c0,40.455,33.061,73.51,73.517,73.51c16.978,0,32.674-5.742,45.182-15.564v-0.133v-0.123
				c-13.146,25.01-39.442,42.113-69.56,42.113c-43.137,0-78.366-35.223-78.366-78.49c0-33.82,21.572-62.79,51.691-73.768V577.021z"
				/>
			<path style="fill-rule:evenodd;clip-rule:evenodd;fill:#EEEEEF;" d="M191.003,648.748l11.742-19.779l-0.384,0.127l22.463,5.104
				l-15.06-17.229v0.256l11.741-19.781l-20.8,8.934h-0.255l0,0l-14.805-17.106l1.914,22.465c0,0.127-0.129,0.256-0.129,0.383
				l-20.674,8.807l22.204,5.106l0,0L191.003,648.748z M131.91,576.894c-13.785,13.404-22.464,32.164-22.464,52.84
				c0,40.455,33.061,73.51,73.518,73.51c16.978,0,32.674-5.742,45.182-15.564v-0.133v-0.123
				c-13.146,25.01-39.442,42.113-69.559,42.113c-43.138,0-78.366-35.223-78.366-78.491c0-33.819,21.571-62.79,51.69-73.767V576.894z
				"/>
			<path style="fill-rule:evenodd;clip-rule:evenodd;fill:#EEEEEF;" d="M190.888,648.623l11.742-19.781l-0.384,0.128l22.464,5.103
				l-15.061-17.228v0.256l11.741-19.781l-20.8,8.934h-0.254l0,0l-14.807-17.105l1.915,22.464c0,0.127-0.129,0.256-0.129,0.383
				l-20.674,8.806l22.203,5.106l0,0L190.888,648.623z M131.796,576.768c-13.786,13.405-22.465,32.165-22.465,52.841
				c0,40.455,33.061,73.51,73.518,73.51c16.977,0,32.673-5.742,45.182-15.565v-0.133v-0.124
				c-13.146,25.01-39.442,42.114-69.56,42.114c-43.138,0-78.366-35.223-78.366-78.491c0-33.819,21.572-62.79,51.691-73.767V576.768z
				"/>
			<path style="fill-rule:evenodd;clip-rule:evenodd;fill:#EDEEEE;" d="M190.773,648.497l11.743-19.78l-0.384,0.127l22.464,5.104
				l-15.061-17.229v0.256l11.741-19.781l-20.799,8.934h-0.256l0,0l-14.806-17.106l1.915,22.465c0,0.127-0.129,0.256-0.129,0.383
				l-20.674,8.807l22.203,5.106l0,0L190.773,648.497z M131.681,576.643c-13.785,13.404-22.464,32.164-22.464,52.84
				c0,40.455,33.061,73.51,73.518,73.51c16.977,0,32.673-5.742,45.182-15.565v-0.133v-0.123
				c-13.146,25.01-39.442,42.113-69.56,42.113c-43.138,0-78.366-35.223-78.366-78.491c0-33.819,21.571-62.79,51.691-73.767V576.643z
				"/>
			<path style="fill-rule:evenodd;clip-rule:evenodd;fill:#EDEDEE;" d="M190.659,648.371l11.743-19.78l-0.384,0.127l22.464,5.104
				l-15.061-17.229v0.256l11.741-19.781l-20.8,8.934h-0.255l0,0l-14.806-17.104l1.914,22.464c0,0.127-0.129,0.256-0.129,0.383
				l-20.674,8.807l22.204,5.105l0,0L190.659,648.371z M131.566,576.517c-13.785,13.404-22.464,32.164-22.464,52.84
				c0,40.455,33.061,73.51,73.517,73.51c16.978,0,32.673-5.742,45.182-15.564v-0.133v-0.123
				c-13.146,25.01-39.442,42.113-69.56,42.113c-43.138,0-78.366-35.223-78.366-78.491c0-33.819,21.571-62.79,51.69-73.767V576.517z"
				/>
			<path style="fill-rule:evenodd;clip-rule:evenodd;fill:#ECEDED;" d="M190.545,648.245l11.742-19.78l-0.383,0.127l22.463,5.104
				l-15.061-17.229v0.256l11.74-19.781l-20.8,8.934h-0.255l0,0l-14.806-17.104l1.914,22.464c0,0.127-0.129,0.256-0.129,0.383
				l-20.674,8.807l22.203,5.105l0,0L190.545,648.245z M131.452,576.391c-13.785,13.404-22.464,32.164-22.464,52.84
				c0,40.455,33.061,73.51,73.517,73.51c16.977,0,32.673-5.742,45.182-15.564v-0.133v-0.123
				c-13.146,25.01-39.442,42.113-69.56,42.113c-43.138,0-78.367-35.223-78.367-78.491c0-33.819,21.572-62.79,51.691-73.767V576.391z
				"/>
			<path style="fill-rule:evenodd;clip-rule:evenodd;fill:#ECECED;" d="M190.431,648.119l11.742-19.78l-0.384,0.128l22.464,5.104
				l-15.061-17.229v0.256l11.74-19.782l-20.8,8.935h-0.255l0,0l-14.806-17.106l1.914,22.465c0,0.126-0.129,0.256-0.129,0.382
				l-20.674,8.807l22.204,5.106l0,0L190.431,648.119z M131.338,576.266c-13.785,13.403-22.464,32.163-22.464,52.84
				c0,40.454,33.061,73.509,73.517,73.509c16.978,0,32.674-5.741,45.183-15.565v-0.132v-0.124
				c-13.147,25.011-39.442,42.114-69.561,42.114c-43.137,0-78.365-35.224-78.365-78.492c0-33.818,21.571-62.789,51.69-73.767
				V576.266z"/>
			<path style="fill-rule:evenodd;clip-rule:evenodd;fill:#EBECED;" d="M190.316,647.994l11.742-19.781l-0.384,0.128l22.464,5.103
				l-15.061-17.229v0.256l11.74-19.781l-20.8,8.933h-0.255l0,0l-14.806-17.104l1.914,22.463c0,0.128-0.129,0.257-0.129,0.383
				l-20.674,8.807l22.203,5.105l0,0L190.316,647.994z M131.224,576.139c-13.785,13.404-22.465,32.165-22.465,52.841
				c0,40.455,33.062,73.509,73.518,73.509c16.978,0,32.674-5.741,45.182-15.564v-0.132v-0.124
				c-13.145,25.011-39.441,42.113-69.559,42.113c-43.138,0-78.366-35.222-78.366-78.49c0-33.82,21.572-62.79,51.691-73.768V576.139z
				"/>
			<path style="fill-rule:evenodd;clip-rule:evenodd;fill:#EBECEC;" d="M190.202,647.867l11.743-19.779l-0.384,0.127l22.464,5.104
				l-15.061-17.229v0.256l11.741-19.781l-20.8,8.933h-0.255l0,0l-14.807-17.105l1.914,22.465c0,0.127-0.129,0.256-0.129,0.383
				l-20.674,8.807l22.204,5.105l0,0L190.202,647.867z M131.109,576.014c-13.785,13.404-22.465,32.164-22.465,52.84
				c0,40.455,33.061,73.51,73.518,73.51c16.978,0,32.674-5.742,45.182-15.564v-0.133v-0.123
				c-13.146,25.01-39.442,42.113-69.56,42.113c-43.138,0-78.366-35.223-78.366-78.492c0-33.818,21.572-62.789,51.691-73.766V576.014
				z"/>
			<path style="fill-rule:evenodd;clip-rule:evenodd;fill:#EBEBEC;" d="M190.087,647.742l11.742-19.78l-0.384,0.127l22.464,5.103
				l-15.061-17.228v0.256l11.74-19.781l-20.8,8.934h-0.255l0,0l-14.806-17.104l1.915,22.464c0,0.127-0.129,0.256-0.129,0.382
				l-20.674,8.808l22.203,5.106l0,0L190.087,647.742z M130.995,575.888c-13.785,13.404-22.464,32.164-22.464,52.84
				c0,40.455,33.061,73.51,73.518,73.51c16.977,0,32.674-5.742,45.182-15.564v-0.133v-0.123
				c-13.146,25.01-39.442,42.113-69.56,42.113c-43.138,0-78.366-35.223-78.366-78.491c0-33.819,21.572-62.79,51.691-73.767V575.888z
				"/>
			<path style="fill-rule:evenodd;clip-rule:evenodd;fill:#EAEBEC;" d="M189.973,647.616l11.742-19.78l-0.383,0.127l22.463,5.104
				l-15.061-17.229v0.256l11.741-19.781l-20.799,8.934h-0.256l0,0l-14.805-17.104l1.914,22.464c0,0.127-0.129,0.256-0.129,0.383
				l-20.674,8.807l22.203,5.105l0,0L189.973,647.616z M130.88,575.762c-13.786,13.404-22.464,32.164-22.464,52.84
				c0,40.455,33.061,73.51,73.517,73.51c16.977,0,32.673-5.742,45.182-15.564v-0.133v-0.123
				c-13.146,25.01-39.442,42.113-69.56,42.113c-43.138,0-78.366-35.223-78.366-78.491c0-33.819,21.572-62.79,51.691-73.767V575.762z
				"/>
			<path style="fill-rule:evenodd;clip-rule:evenodd;fill:#EAEAEB;" d="M189.858,647.49l11.742-19.78l-0.383,0.127l22.464,5.104
				l-15.061-17.229v0.256l11.74-19.781l-20.799,8.934h-0.255l0,0L184.5,588.016l1.914,22.464c0,0.127-0.129,0.256-0.129,0.383
				l-20.674,8.807l22.203,5.106l0,0L189.858,647.49z M130.766,575.636c-13.785,13.404-22.464,32.164-22.464,52.84
				c0,40.455,33.061,73.51,73.517,73.51c16.977,0,32.674-5.742,45.182-15.565v-0.133v-0.123
				c-13.146,25.01-39.442,42.113-69.56,42.113c-43.138,0-78.366-35.223-78.366-78.491c0-33.819,21.571-62.79,51.69-73.767V575.636z"
				/>
			<path style="fill-rule:evenodd;clip-rule:evenodd;fill:#E9EAEB;" d="M189.744,647.364l11.742-19.78l-0.383,0.127l22.463,5.104
				l-15.061-17.229v0.256l11.74-19.781l-20.8,8.934h-0.255l0,0l-14.806-17.104l1.914,22.464c0,0.127-0.129,0.256-0.129,0.383
				l-20.674,8.807l22.203,5.105l0,0L189.744,647.364z M130.651,575.51c-13.785,13.404-22.464,32.164-22.464,52.84
				c0,40.455,33.061,73.51,73.517,73.51c16.978,0,32.674-5.742,45.183-15.564v-0.133v-0.123
				c-13.146,25.01-39.442,42.113-69.56,42.113c-43.138,0-78.366-35.223-78.366-78.49c0-33.82,21.571-62.791,51.69-73.768V575.51z"/>
			<path style="fill-rule:evenodd;clip-rule:evenodd;fill:#E9EAEA;" d="M189.63,647.238l11.742-19.779l-0.384,0.127l22.464,5.104
				l-15.061-17.229v0.256l11.74-19.781l-20.8,8.934h-0.255l0,0l-14.806-17.105l1.914,22.465c0,0.127-0.129,0.256-0.129,0.383
				l-20.674,8.807l22.204,5.105l0,0L189.63,647.238z M130.537,575.385c-13.785,13.404-22.464,32.164-22.464,52.839
				c0,40.456,33.061,73.511,73.517,73.511c16.978,0,32.674-5.742,45.182-15.564v-0.133v-0.123
				c-13.146,25.01-39.442,42.113-69.56,42.113c-43.138,0-78.366-35.223-78.366-78.492c0-33.818,21.572-62.789,51.691-73.766V575.385
				z"/>
			<path style="fill-rule:evenodd;clip-rule:evenodd;fill:#E8E9EA;" d="M189.516,647.113l11.742-19.781l-0.384,0.127l22.464,5.104
				l-15.061-17.229v0.256l11.74-19.781l-20.8,8.934h-0.255l0,0l-14.806-17.104l1.914,22.463c0,0.128-0.129,0.256-0.129,0.383
				l-20.674,8.807l22.204,5.105l0,0L189.516,647.113z M130.423,575.258c-13.785,13.404-22.464,32.164-22.464,52.84
				c0,40.455,33.06,73.51,73.517,73.51c16.978,0,32.674-5.742,45.182-15.564v-0.133v-0.123
				c-13.146,25.01-39.442,42.114-69.56,42.114c-43.138,0-78.366-35.223-78.366-78.491c0-33.82,21.572-62.791,51.691-73.768V575.258z
				"/>
			<path style="fill-rule:evenodd;clip-rule:evenodd;fill:#E8E9EA;" d="M189.401,646.986l11.743-19.779l-0.384,0.127l22.464,5.104
				l-15.061-17.229v0.256l11.74-19.781l-20.8,8.934h-0.255l0,0l-14.806-17.105l1.914,22.465c0,0.127-0.129,0.256-0.129,0.383
				l-20.674,8.807l22.204,5.105l0,0L189.401,646.986z M130.309,575.133c-13.785,13.404-22.465,32.164-22.465,52.84
				c0,40.455,33.061,73.51,73.517,73.51c16.978,0,32.674-5.742,45.182-15.564v-0.133v-0.123
				c-13.146,25.01-39.442,42.113-69.56,42.113c-43.138,0-78.366-35.223-78.366-78.492c0-33.818,21.572-62.789,51.691-73.766V575.133
				z"/>
			<path style="fill-rule:evenodd;clip-rule:evenodd;fill:#E8E8E9;" d="M189.287,646.861l11.742-19.78l-0.383,0.127l22.464,5.104
				l-15.061-17.229v0.256l11.74-19.781l-20.799,8.934h-0.255l0,0l-14.806-17.104l1.914,22.464c0,0.127-0.128,0.256-0.128,0.383
				l-20.674,8.807l22.203,5.106l0,0L189.287,646.861z M130.194,575.007c-13.785,13.404-22.464,32.164-22.464,52.84
				c0,40.455,33.06,73.51,73.517,73.51c16.978,0,32.674-5.742,45.182-15.564v-0.133v-0.123
				c-13.146,25.01-39.442,42.113-69.56,42.113c-43.137,0-78.366-35.223-78.366-78.491c0-33.819,21.572-62.79,51.691-73.767V575.007z
				"/>
			<path style="fill-rule:evenodd;clip-rule:evenodd;fill:#E7E8E9;" d="M189.172,646.735l11.743-19.78l-0.384,0.127l22.464,5.104
				l-15.061-17.229v0.256l11.741-19.781l-20.801,8.934h-0.255l0,0l-14.806-17.104l1.914,22.464c0,0.127-0.129,0.256-0.129,0.383
				l-20.674,8.807l22.203,5.105l0,0L189.172,646.735z M130.08,574.881c-13.786,13.404-22.465,32.164-22.465,52.84
				c0,40.455,33.061,73.51,73.517,73.51c16.978,0,32.674-5.742,45.182-15.565v-0.133v-0.123
				c-13.146,25.01-39.442,42.113-69.56,42.113c-43.138,0-78.366-35.223-78.366-78.491c0-33.819,21.572-62.79,51.691-73.767V574.881z
				"/>
			<path style="fill-rule:evenodd;clip-rule:evenodd;fill:#E7E8E8;" d="M189.058,646.609l11.742-19.78l-0.384,0.127l22.464,5.104
				l-15.06-17.229v0.256l11.74-19.781l-20.8,8.934h-0.255l0,0l-14.806-17.104l1.914,22.464c0,0.127-0.129,0.256-0.129,0.383
				l-20.674,8.808l22.203,5.104l0,0L189.058,646.609z M129.965,574.755c-13.786,13.404-22.464,32.165-22.464,52.84
				c0,40.456,33.06,73.51,73.517,73.51c16.978,0,32.674-5.742,45.183-15.563v-0.134v-0.123
				c-13.146,25.01-39.442,42.113-69.56,42.113c-43.138,0-78.366-35.223-78.366-78.491c0-33.819,21.572-62.79,51.691-73.767V574.755z
				"/>
			<path style="fill-rule:evenodd;clip-rule:evenodd;fill:#E6E7E8;" d="M188.943,646.483l11.742-19.78l-0.384,0.127l22.464,5.104
				l-15.06-17.229v0.256l11.74-19.781l-20.8,8.934h-0.255l0,0l-14.806-17.104l1.914,22.464c0,0.127-0.129,0.256-0.129,0.383
				l-20.674,8.807l22.203,5.105l0,0L188.943,646.483z M129.851,574.629c-13.786,13.404-22.464,32.164-22.464,52.84
				c0,40.455,33.06,73.51,73.517,73.51c16.978,0,32.674-5.742,45.183-15.564v-0.133v-0.123
				c-13.147,25.01-39.442,42.113-69.56,42.113c-43.137,0-78.366-35.223-78.366-78.491c0-33.819,21.572-62.79,51.691-73.767V574.629z
				"/>
			<path style="fill-rule:evenodd;clip-rule:evenodd;fill:#E6E7E8;" d="M188.829,646.357l11.743-19.779l-0.384,0.127l22.464,5.103
				l-15.061-17.228v0.255l11.74-19.78l-20.8,8.934h-0.255l0,0l-14.806-17.105l1.914,22.465c0,0.127-0.129,0.256-0.129,0.382
				l-20.673,8.808l22.203,5.105l0,0L188.829,646.357z M129.736,574.503c-13.785,13.405-22.464,32.165-22.464,52.841
				c0,40.455,33.061,73.51,73.517,73.51c16.978,0,32.674-5.742,45.182-15.564v-0.133v-0.124
				c-13.146,25.011-39.441,42.114-69.559,42.114c-43.138,0-78.367-35.223-78.367-78.491c0-33.82,21.572-62.79,51.691-73.767V574.503
				z"/>
			<path style="fill-rule:evenodd;clip-rule:evenodd;fill:#E5E6E7;" d="M188.714,646.232l11.743-19.78l-0.384,0.126l22.464,5.103
				l-15.061-17.228v0.256l11.74-19.78l-20.8,8.933h-0.255l0,0l-14.806-17.104l1.914,22.463c0,0.128-0.128,0.256-0.128,0.384
				l-20.674,8.807l22.203,5.105l0,0L188.714,646.232z M129.622,574.377c-13.785,13.405-22.464,32.165-22.464,52.84
				c0,40.456,33.061,73.51,73.517,73.51c16.978,0,32.674-5.742,45.182-15.565v-0.133v-0.122
				c-13.146,25.009-39.442,42.112-69.559,42.112c-43.137,0-78.366-35.223-78.366-78.49c0-33.82,21.572-62.791,51.691-73.767V574.377
				z"/>
			<path style="fill-rule:evenodd;clip-rule:evenodd;fill:#E5E6E7;" d="M188.6,646.106l11.743-19.78l-0.384,0.127l22.464,5.103
				l-15.061-17.228v0.256l11.74-19.781l-20.8,8.934h-0.255l0,0l-14.806-17.105l1.914,22.464c0,0.127-0.129,0.256-0.129,0.383
				l-20.674,8.807l22.204,5.105l0,0L188.6,646.106z M129.508,574.252c-13.785,13.404-22.465,32.164-22.465,52.84
				c0,40.455,33.061,73.51,73.518,73.51c16.978,0,32.674-5.742,45.182-15.565v-0.133v-0.123
				c-13.146,25.01-39.442,42.113-69.559,42.113c-43.138,0-78.366-35.223-78.366-78.491c0-33.819,21.572-62.79,51.691-73.767V574.252
				z"/>
			<path style="fill-rule:evenodd;clip-rule:evenodd;fill:#E5E5E6;" d="M188.486,645.981l11.743-19.78l-0.384,0.127l22.464,5.104
				l-15.061-17.229v0.256l11.74-19.781l-20.8,8.934h-0.255l0,0l-14.807-17.104l1.914,22.464c0,0.127-0.129,0.256-0.129,0.383
				l-20.674,8.807l22.204,5.105l0,0L188.486,645.981z M129.393,574.126c-13.785,13.404-22.464,32.164-22.464,52.84
				c0,40.455,33.061,73.51,73.518,73.51c16.978,0,32.673-5.742,45.182-15.565v-0.133v-0.123
				c-13.146,25.01-39.441,42.113-69.559,42.113c-43.138,0-78.366-35.223-78.366-78.491c0-33.819,21.572-62.79,51.691-73.767V574.126
				z"/>
			<path style="fill-rule:evenodd;clip-rule:evenodd;fill:#E4E5E6;" d="M188.371,645.854l11.743-19.78l-0.384,0.127l22.464,5.104
				l-15.061-17.229v0.256l11.74-19.781l-20.799,8.934h-0.255l0,0l-14.806-17.104l1.914,22.464c0,0.127-0.129,0.256-0.129,0.383
				l-20.674,8.807l22.203,5.105l0,0L188.371,645.854z M129.279,574c-13.785,13.404-22.465,32.164-22.465,52.84
				c0,40.455,33.061,73.51,73.517,73.51c16.978,0,32.675-5.742,45.183-15.564v-0.133v-0.123
				c-13.146,25.01-39.442,42.113-69.56,42.113c-43.138,0-78.366-35.223-78.366-78.491c0-33.819,21.572-62.79,51.691-73.767V574z"/>
			<path style="fill-rule:evenodd;clip-rule:evenodd;fill:#E4E5E6;" d="M188.257,645.729L200,625.948l-0.384,0.128l22.465,5.103
				L207.02,613.95v0.256l11.739-19.781l-20.799,8.934h-0.254l0,0l-14.807-17.104l1.914,22.464c0,0.128-0.129,0.256-0.129,0.383
				l-20.674,8.807l22.204,5.105l0,0L188.257,645.729z M129.164,573.874c-13.785,13.405-22.464,32.164-22.464,52.841
				c0,40.454,33.06,73.509,73.517,73.509c16.978,0,32.674-5.742,45.183-15.564v-0.133v-0.123
				c-13.146,25.01-39.442,42.113-69.56,42.113c-43.138,0-78.366-35.223-78.366-78.491c0-33.819,21.572-62.79,51.69-73.766V573.874z"
				/>
			<path style="fill-rule:evenodd;clip-rule:evenodd;fill:#E3E4E5;" d="M188.143,645.604l11.742-19.781l-0.384,0.127l22.464,5.103
				l-15.061-17.228v0.256l11.74-19.781l-20.8,8.934h-0.255l0,0l-14.806-17.104l1.914,22.463c0,0.127-0.129,0.256-0.129,0.383
				l-20.674,8.807l22.203,5.105l0,0L188.143,645.604z M129.05,573.748c-13.785,13.404-22.464,32.164-22.464,52.84
				c0,40.455,33.061,73.51,73.517,73.51c16.978,0,32.674-5.742,45.182-15.565V684.4v-0.123
				c-13.146,25.01-39.442,42.113-69.559,42.113c-43.138,0-78.366-35.223-78.366-78.49c0-33.82,21.572-62.791,51.691-73.768V573.748z
				"/>
			<path style="fill-rule:evenodd;clip-rule:evenodd;fill:#E3E4E5;" d="M188.028,645.477l11.742-19.78l-0.384,0.126l22.464,5.104
				l-15.061-17.229v0.256l11.74-19.781l-20.8,8.935h-0.255l0,0l-14.806-17.104l1.914,22.464c0,0.127-0.128,0.256-0.128,0.383
				l-20.674,8.806l22.203,5.106l0,0L188.028,645.477z M128.936,573.623c-13.785,13.404-22.464,32.163-22.464,52.84
				c0,40.455,33.06,73.51,73.517,73.51c16.978,0,32.674-5.742,45.182-15.565v-0.132v-0.124
				c-13.147,25.011-39.442,42.114-69.56,42.114c-43.137,0-78.366-35.223-78.366-78.492c0-33.819,21.572-62.789,51.691-73.766
				V573.623z"/>
			<path style="fill-rule:evenodd;clip-rule:evenodd;fill:#E3E3E4;" d="M187.914,645.352l11.742-19.781l-0.384,0.128l22.464,5.103
				l-15.061-17.228v0.256l11.74-19.781l-20.8,8.933h-0.255l0,0l-14.806-17.104l1.913,22.463c0,0.128-0.129,0.257-0.129,0.384
				l-20.674,8.806l22.204,5.106l0,0L187.914,645.352z M128.821,573.497c-13.785,13.404-22.464,32.163-22.464,52.84
				c0,40.454,33.06,73.51,73.517,73.51c16.978,0,32.674-5.742,45.182-15.564v-0.133v-0.124
				c-13.146,25.011-39.441,42.114-69.559,42.114c-43.138,0-78.366-35.224-78.366-78.491c0-33.819,21.571-62.791,51.69-73.767
				V573.497z"/>
			<path style="fill-rule:evenodd;clip-rule:evenodd;fill:#E2E3E4;" d="M187.8,645.226l11.742-19.78l-0.384,0.127l22.464,5.103
				l-15.061-17.228v0.256l11.74-19.781l-20.8,8.934h-0.255l0,0l-14.806-17.105l1.914,22.464c0,0.127-0.128,0.256-0.128,0.383
				l-20.674,8.807l22.204,5.106l0,0L187.8,645.226z M128.707,573.371c-13.785,13.404-22.464,32.164-22.464,52.84
				c0,40.455,33.061,73.51,73.517,73.51c16.978,0,32.674-5.742,45.182-15.564v-0.133V683.9
				c-13.146,25.01-39.442,42.113-69.56,42.113c-43.138,0-78.366-35.223-78.366-78.491c0-33.819,21.572-62.79,51.691-73.767V573.371z
				"/>
			<path style="fill-rule:evenodd;clip-rule:evenodd;fill:#E2E3E4;" d="M187.685,645.1l11.743-19.78l-0.384,0.127l22.464,5.104
				l-15.061-17.229v0.256l11.74-19.781l-20.799,8.934h-0.255l0,0l-14.806-17.104l1.914,22.464c0,0.127-0.129,0.256-0.129,0.383
				l-20.674,8.807l22.204,5.105l0,0L187.685,645.1z M128.593,573.245c-13.785,13.404-22.464,32.164-22.464,52.84
				c0,40.455,33.06,73.51,73.516,73.51c16.978,0,32.675-5.742,45.183-15.564v-0.133v-0.123
				c-13.146,25.01-39.442,42.113-69.56,42.113c-43.138,0-78.366-35.223-78.366-78.491c0-33.819,21.572-62.79,51.691-73.767V573.245z
				"/>
			<path style="fill-rule:evenodd;clip-rule:evenodd;fill:#E1E2E3;" d="M187.57,644.974l11.742-19.78l-0.383,0.127l22.464,5.104
				l-15.061-17.229v0.256l11.739-19.781l-20.799,8.934h-0.255l0,0L182.212,585.5l1.914,22.463c0,0.127-0.129,0.256-0.129,0.383
				l-20.674,8.807l22.204,5.106l0,0L187.57,644.974z M128.478,573.119c-13.785,13.404-22.464,32.164-22.464,52.84
				c0,40.455,33.061,73.51,73.517,73.51c16.978,0,32.674-5.742,45.183-15.565v-0.133v-0.123
				c-13.146,25.01-39.442,42.113-69.56,42.113c-43.138,0-78.366-35.223-78.366-78.491c0-33.819,21.572-62.79,51.691-73.767V573.119z
				"/>
			<path style="fill-rule:evenodd;clip-rule:evenodd;fill:#E1E2E3;" d="M187.456,644.848l11.742-19.78l-0.384,0.127l22.465,5.104
				l-15.061-17.229v0.256l11.74-19.781l-20.8,8.935h-0.255l0,0l-14.806-17.104l1.914,22.463c0,0.128-0.129,0.256-0.129,0.384
				l-20.674,8.806l22.203,5.106l0,0L187.456,644.848z M128.364,572.993c-13.785,13.405-22.465,32.164-22.465,52.84
				c0,40.455,33.061,73.511,73.517,73.511c16.977,0,32.673-5.742,45.182-15.565v-0.133v-0.123
				c-13.146,25.01-39.442,42.113-69.559,42.113c-43.138,0-78.366-35.223-78.366-78.49c0-33.82,21.572-62.791,51.691-73.767V572.993z
				"/>
			<path style="fill-rule:evenodd;clip-rule:evenodd;fill:#E0E1E2;" d="M187.342,644.723l11.742-19.781l-0.384,0.127l22.465,5.103
				l-15.061-17.228v0.256l11.74-19.781l-20.8,8.934h-0.254l0,0l-14.806-17.104l1.914,22.464c0,0.126-0.129,0.255-0.129,0.382
				l-20.674,8.807l22.204,5.106l0,0L187.342,644.723z M128.249,572.867c-13.786,13.404-22.465,32.164-22.465,52.84
				c0,40.455,33.061,73.511,73.517,73.511c16.977,0,32.674-5.743,45.182-15.565v-0.133v-0.123
				c-13.146,25.01-39.442,42.113-69.559,42.113c-43.138,0-78.366-35.223-78.366-78.49c0-33.82,21.572-62.791,51.691-73.767V572.867z
				"/>
			<path style="fill-rule:evenodd;clip-rule:evenodd;fill:#E0E1E2;" d="M187.227,644.597l11.742-19.781l-0.384,0.128l22.465,5.103
				l-15.061-17.228v0.255l11.74-19.78l-20.8,8.934h-0.255l0,0l-14.806-17.105l1.914,22.464c0,0.127-0.128,0.256-0.128,0.383
				l-20.674,8.807l22.204,5.106l0,0L187.227,644.597z M128.135,572.742c-13.786,13.404-22.465,32.164-22.465,52.84
				c0,40.455,33.061,73.509,73.517,73.509c16.978,0,32.674-5.742,45.182-15.564v-0.134v-0.122
				c-13.147,25.01-39.442,42.113-69.559,42.113c-43.138,0-78.367-35.223-78.367-78.491c0-33.82,21.572-62.79,51.691-73.767V572.742z
				"/>
			<path style="fill-rule:evenodd;clip-rule:evenodd;fill:#E0E1E2;" d="M187.113,644.471l11.742-19.781l-0.384,0.128l22.464,5.103
				l-15.061-17.228v0.256l11.74-19.782l-20.8,8.935h-0.255l0,0l-14.806-17.104l1.914,22.463c0,0.128-0.129,0.257-0.129,0.383
				l-20.674,8.808l22.204,5.104l0,0L187.113,644.471z M128.02,572.616c-13.785,13.404-22.465,32.163-22.465,52.84
				c0,40.455,33.06,73.509,73.517,73.509c16.978,0,32.674-5.741,45.182-15.563v-0.133v-0.124
				c-13.146,25.011-39.442,42.114-69.56,42.114c-43.137,0-78.365-35.224-78.365-78.491c0-33.819,21.571-62.79,51.69-73.767V572.616z
				"/>
			<path style="fill-rule:evenodd;clip-rule:evenodd;fill:#DFE0E1;" d="M186.999,644.345l11.742-19.78l-0.384,0.127l22.464,5.104
				l-15.061-17.229v0.256l11.74-19.781l-20.8,8.934h-0.255l0,0L181.64,584.87l1.914,22.464c0,0.127-0.129,0.256-0.129,0.383
				l-20.674,8.807l22.204,5.106l0,0L186.999,644.345z M127.906,572.49c-13.785,13.404-22.465,32.164-22.465,52.84
				c0,40.455,33.061,73.51,73.517,73.51c16.978,0,32.674-5.742,45.182-15.564v-0.133v-0.123
				c-13.146,25.01-39.442,42.113-69.559,42.113c-43.138,0-78.367-35.223-78.367-78.491c0-33.819,21.572-62.79,51.691-73.767V572.49z
				"/>
			<path style="fill-rule:evenodd;clip-rule:evenodd;fill:#DFE0E1;" d="M186.884,644.219l11.743-19.78l-0.384,0.127l22.464,5.103
				l-15.061-17.228v0.256l11.74-19.781l-20.8,8.934h-0.255l0,0l-14.806-17.104l1.914,22.464c0,0.127-0.129,0.256-0.129,0.383
				l-20.674,8.807l22.204,5.105l0,0L186.884,644.219z M127.792,572.364c-13.785,13.404-22.465,32.164-22.465,52.84
				c0,40.455,33.061,73.51,73.517,73.51c16.978,0,32.674-5.742,45.182-15.565v-0.133v-0.123
				c-13.146,25.01-39.442,42.113-69.56,42.113c-43.138,0-78.366-35.223-78.366-78.491c0-33.819,21.572-62.79,51.691-73.767V572.364z
				"/>
			<path style="fill-rule:evenodd;clip-rule:evenodd;fill:#DEDFE0;" d="M186.77,644.094l11.743-19.781l-0.384,0.127l22.464,5.104
				l-15.061-17.229v0.256l11.74-19.781l-20.8,8.934h-0.255l0,0l-14.806-17.104l1.914,22.463c0,0.127-0.129,0.256-0.129,0.383
				l-20.674,8.807l22.204,5.106l0,0L186.77,644.094z M127.678,572.238c-13.785,13.404-22.465,32.164-22.465,52.84
				c0,40.455,33.061,73.51,73.517,73.51c16.978,0,32.674-5.742,45.182-15.565v-0.133v-0.123
				c-13.146,25.01-39.442,42.113-69.56,42.113c-43.138,0-78.366-35.223-78.366-78.49c0-33.82,21.572-62.791,51.691-73.768V572.238z"
				/>
			<path style="fill-rule:evenodd;clip-rule:evenodd;fill:#DEDFE0;" d="M186.655,643.968l11.743-19.781l-0.384,0.127l22.465,5.104
				l-15.061-17.227v0.255l11.74-19.78l-20.8,8.933h-0.255l0,0l-14.806-17.103l1.914,22.463c0,0.128-0.129,0.256-0.129,0.383
				l-20.674,8.808l22.204,5.106l0,0L186.655,643.968z M127.563,572.113c-13.785,13.403-22.464,32.164-22.464,52.839
				c0,40.455,33.061,73.51,73.517,73.51c16.978,0,32.674-5.742,45.182-15.564v-0.133v-0.123
				c-13.146,25.011-39.442,42.113-69.559,42.113c-43.138,0-78.366-35.222-78.366-78.491c0-33.819,21.572-62.79,51.691-73.767
				V572.113z"/>
			<path style="fill-rule:evenodd;clip-rule:evenodd;fill:#DDDFE0;" d="M186.541,643.842l11.743-19.781l-0.384,0.128l22.465,5.103
				l-15.061-17.229v0.257l11.739-19.782l-20.799,8.935h-0.255l0,0l-14.806-17.104l1.914,22.464c0,0.126-0.129,0.255-0.129,0.382
				l-20.674,8.807l22.204,5.106l0,0L186.541,643.842z M127.449,571.986c-13.786,13.404-22.465,32.165-22.465,52.841
				c0,40.454,33.061,73.509,73.517,73.509c16.978,0,32.674-5.742,45.182-15.564v-0.133v-0.123
				c-13.146,25.01-39.442,42.113-69.559,42.113c-43.138,0-78.367-35.222-78.367-78.49c0-33.819,21.572-62.791,51.692-73.768V571.986
				z"/>
			<path style="fill-rule:evenodd;clip-rule:evenodd;fill:#DDDEDF;" d="M186.427,643.716l11.743-19.78l-0.384,0.127l22.464,5.104
				l-15.061-17.229v0.255l11.74-19.78l-20.8,8.933h-0.255l0,0l-14.806-17.104l1.913,22.464c0,0.127-0.128,0.256-0.128,0.382
				l-20.674,8.808L184.383,621l0,0L186.427,643.716z M127.335,571.86c-13.785,13.405-22.465,32.165-22.465,52.841
				c0,40.455,33.061,73.51,73.517,73.51c16.978,0,32.674-5.742,45.182-15.564v-0.133v-0.123
				c-13.146,25.01-39.442,42.112-69.559,42.112c-43.138,0-78.366-35.223-78.366-78.49c0-33.82,21.572-62.79,51.691-73.767V571.86z"
				/>
			<path style="fill-rule:evenodd;clip-rule:evenodd;fill:#DDDEDF;" d="M186.313,643.59l11.742-19.78l-0.384,0.127l22.464,5.103
				l-15.061-17.228v0.256l11.74-19.781l-20.8,8.934h-0.255l0,0l-14.806-17.105l1.914,22.463c0,0.128-0.128,0.257-0.128,0.384
				l-20.674,8.807l22.204,5.104l0,0L186.313,643.59z M127.22,571.735c-13.786,13.404-22.465,32.164-22.465,52.839
				c0,40.455,33.061,73.511,73.517,73.511c16.978,0,32.674-5.743,45.183-15.565v-0.133v-0.123
				c-13.147,25.009-39.442,42.113-69.56,42.113c-43.137,0-78.366-35.223-78.366-78.491c0-33.819,21.572-62.79,51.691-73.767V571.735
				z"/>
			<path style="fill-rule:evenodd;clip-rule:evenodd;fill:#DCDDDF;" d="M186.197,643.464l11.743-19.78l-0.384,0.127l22.465,5.104
				l-15.061-17.229v0.256l11.74-19.781l-20.8,8.934h-0.255l0,0l-14.806-17.104l1.914,22.464c0,0.127-0.129,0.256-0.129,0.383
				l-20.674,8.807l22.204,5.105l0,0L186.197,643.464z M127.105,571.609c-13.785,13.404-22.464,32.164-22.464,52.84
				c0,40.455,33.061,73.51,73.517,73.51c16.978,0,32.674-5.742,45.183-15.565v-0.133v-0.123
				c-13.146,25.01-39.442,42.113-69.56,42.113c-43.138,0-78.366-35.223-78.366-78.491c0-33.819,21.572-62.79,51.691-73.767V571.609z
				"/>
			<path style="fill-rule:evenodd;clip-rule:evenodd;fill:#DCDDDE;" d="M186.083,643.338l11.743-19.78l-0.384,0.127l22.464,5.104
				l-15.061-17.229v0.256l11.74-19.781l-20.8,8.934h-0.254l0,0l-14.807-17.103l1.915,22.463c0,0.127-0.129,0.256-0.129,0.383
				l-20.674,8.807l22.204,5.105l0,0L186.083,643.338z M126.991,571.483c-13.785,13.404-22.465,32.164-22.465,52.84
				c0,40.455,33.061,73.51,73.517,73.51c16.977,0,32.674-5.742,45.182-15.564v-0.133v-0.123
				c-13.146,25.01-39.442,42.113-69.559,42.113c-43.138,0-78.366-35.223-78.366-78.49c0-33.82,21.572-62.791,51.691-73.767V571.483z
				"/>
			<path style="fill-rule:evenodd;clip-rule:evenodd;fill:#DBDCDE;" d="M185.969,643.213l11.743-19.781l-0.384,0.127l22.464,5.104
				l-15.061-17.229v0.256l11.74-19.781l-20.799,8.934h-0.255l0,0l-14.806-17.104l1.915,22.463c0,0.127-0.129,0.256-0.129,0.383
				l-20.674,8.807l22.204,5.105l0,0L185.969,643.213z M126.877,571.357c-13.785,13.404-22.465,32.164-22.465,52.84
				c0,40.455,33.061,73.51,73.517,73.51c16.978,0,32.674-5.742,45.183-15.564v-0.133v-0.123
				C209.965,706.896,183.669,724,153.552,724c-43.137,0-78.366-35.223-78.366-78.49c0-33.82,21.572-62.791,51.691-73.768V571.357z"
				/>
			<path style="fill-rule:evenodd;clip-rule:evenodd;fill:#DBDCDD;" d="M185.855,643.087l11.743-19.781l-0.384,0.127l22.464,5.103
				l-15.061-17.228v0.256l11.739-19.781l-20.799,8.934h-0.255l0,0l-14.806-17.104l1.914,22.463c0,0.127-0.129,0.256-0.129,0.383
				l-20.674,8.807l22.204,5.107l0,0L185.855,643.087z M126.762,571.231c-13.785,13.404-22.464,32.164-22.464,52.84
				c0,40.455,33.061,73.51,73.517,73.51c16.978,0,32.674-5.742,45.182-15.565v-0.133v-0.122
				c-13.146,25.009-39.442,42.112-69.559,42.112c-43.138,0-78.366-35.222-78.366-78.49c0-33.82,21.572-62.791,51.691-73.768V571.231
				z"/>
			<path style="fill-rule:evenodd;clip-rule:evenodd;fill:#DADCDD;" d="M185.74,642.961l11.742-19.781l-0.383,0.127l22.464,5.104
				l-15.061-17.229v0.257l11.74-19.781l-20.8,8.933h-0.255l0,0l-14.806-17.103l1.914,22.464c0,0.126-0.129,0.255-0.129,0.383
				l-20.674,8.806l22.204,5.105l0,0L185.74,642.961z M126.648,571.106c-13.785,13.403-22.465,32.163-22.465,52.839
				c0,40.456,33.06,73.51,73.517,73.51c16.978,0,32.674-5.741,45.182-15.563v-0.134v-0.123
				c-13.146,25.011-39.442,42.113-69.559,42.113c-43.138,0-78.366-35.222-78.366-78.49c0-33.819,21.572-62.791,51.691-73.768
				V571.106z"/>
			<path style="fill-rule:evenodd;clip-rule:evenodd;fill:#DADBDD;" d="M185.626,642.835l11.742-19.78l-0.383,0.127l22.464,5.104
				l-15.061-17.229v0.256l11.74-19.78l-20.8,8.933h-0.254l0,0l-14.807-17.104l1.914,22.464c0,0.127-0.128,0.256-0.128,0.383
				l-20.674,8.807l22.204,5.105l0,0L185.626,642.835z M126.534,570.981c-13.785,13.404-22.464,32.163-22.464,52.839
				c0,40.455,33.061,73.511,73.517,73.511c16.978,0,32.674-5.742,45.182-15.564v-0.133v-0.123
				c-13.147,25.01-39.442,42.113-69.56,42.113c-43.137,0-78.366-35.224-78.366-78.491c0-33.82,21.572-62.79,51.691-73.767V570.981z"
				/>
			<path style="fill-rule:evenodd;clip-rule:evenodd;fill:#DADBDC;" d="M185.512,642.709l11.742-19.78l-0.384,0.127l22.465,5.103
				l-15.061-17.228v0.256l11.739-19.781l-20.8,8.934h-0.255l0,0l-14.806-17.104l1.914,22.462c0,0.128-0.129,0.257-0.129,0.384
				l-20.673,8.806l22.204,5.107l0,0L185.512,642.709z M126.419,570.854c-13.785,13.403-22.464,32.164-22.464,52.84
				c0,40.455,33.06,73.51,73.517,73.51c16.978,0,32.674-5.742,45.182-15.565v-0.133v-0.123
				c-13.147,25.01-39.442,42.113-69.56,42.113c-43.138,0-78.366-35.223-78.366-78.491c0-33.819,21.572-62.79,51.691-73.768V570.854z
				"/>
			<path style="fill-rule:evenodd;clip-rule:evenodd;fill:#D9DADC;" d="M185.397,642.584l11.743-19.781l-0.384,0.127l22.464,5.104
				l-15.06-17.229v0.256l11.739-19.781l-20.8,8.934h-0.255l0,0l-14.807-17.104l1.915,22.463c0,0.127-0.129,0.256-0.129,0.383
				l-20.674,8.807l22.204,5.105l0,0L185.397,642.584z M126.305,570.729c-13.785,13.404-22.464,32.164-22.464,52.84
				c0,40.455,33.06,73.51,73.517,73.51c16.978,0,32.674-5.742,45.182-15.564v-0.133v-0.123
				c-13.147,25.01-39.442,42.113-69.559,42.113c-43.138,0-78.366-35.223-78.366-78.49c0-33.82,21.572-62.791,51.691-73.768V570.729z
				"/>
			<path style="fill-rule:evenodd;clip-rule:evenodd;fill:#D9DADB;" d="M185.283,642.458l11.743-19.781l-0.384,0.127l22.464,5.104
				l-15.061-17.229v0.256l11.739-19.781l-20.8,8.934h-0.254l0,0l-14.807-17.104l1.915,22.463c0,0.127-0.129,0.256-0.129,0.383
				l-20.674,8.807l22.204,5.106l0,0L185.283,642.458z M126.19,570.602c-13.785,13.404-22.464,32.164-22.464,52.84
				c0,40.455,33.061,73.51,73.516,73.51c16.979,0,32.674-5.742,45.183-15.564v-0.133v-0.123
				c-13.146,25.01-39.442,42.113-69.56,42.113c-43.138,0-78.366-35.223-78.366-78.49c0-33.82,21.572-62.791,51.691-73.768V570.602z"
				/>
			<path style="fill-rule:evenodd;clip-rule:evenodd;fill:#D8DADB;" d="M185.169,642.332l11.742-19.781l-0.383,0.127l22.464,5.104
				l-15.06-17.229v0.256l11.74-19.781l-20.8,8.934h-0.255l0,0l-14.806-17.103l1.914,22.463c0,0.127-0.129,0.256-0.129,0.383
				l-20.673,8.807l22.204,5.105l0,0L185.169,642.332z M126.076,570.477c-13.785,13.404-22.464,32.164-22.464,52.84
				c0,40.455,33.06,73.51,73.516,73.51c16.979,0,32.674-5.742,45.183-15.564v-0.133v-0.123
				c-13.146,25.01-39.442,42.113-69.559,42.113c-43.138,0-78.367-35.223-78.367-78.49c0-33.82,21.572-62.791,51.691-73.768V570.477z
				"/>
			<path style="fill-rule:evenodd;clip-rule:evenodd;fill:#D8D9DB;" d="M185.054,642.206l11.743-19.781l-0.384,0.128l22.465,5.103
				l-15.061-17.228v0.256l11.74-19.781l-20.8,8.934h-0.255l0,0l-14.806-17.104l1.914,22.463c0,0.127-0.129,0.256-0.129,0.383
				l-20.674,8.808l22.204,5.105l0,0L185.054,642.206z M125.962,570.351c-13.785,13.404-22.465,32.164-22.465,52.84
				c0,40.456,33.061,73.51,73.517,73.51c16.977,0,32.674-5.741,45.182-15.563v-0.134v-0.122
				c-13.146,25.009-39.442,42.112-69.559,42.112c-43.138,0-78.366-35.222-78.366-78.49c0-33.82,21.572-62.791,51.691-73.768V570.351
				z"/>
			<path style="fill-rule:evenodd;clip-rule:evenodd;fill:#D8D9DA;" d="M184.939,642.08l11.743-19.78l-0.384,0.126l22.465,5.104
				l-15.061-17.227v0.256l11.74-19.781l-20.8,8.933h-0.255l0,0l-14.806-17.103l1.913,22.463c0,0.127-0.128,0.256-0.128,0.382
				l-20.674,8.807l22.204,5.105l0,0L184.939,642.08z M125.847,570.225c-13.785,13.404-22.465,32.164-22.465,52.841
				c0,40.454,33.061,73.51,73.517,73.51c16.978,0,32.674-5.743,45.182-15.565v-0.133v-0.123
				c-13.147,25.009-39.442,42.112-69.559,42.112c-43.138,0-78.366-35.222-78.366-78.49c0-33.819,21.572-62.791,51.691-73.768
				V570.225z"/>
			<path style="fill-rule:evenodd;clip-rule:evenodd;fill:#D7D8DA;" d="M184.825,641.955l11.743-19.781l-0.384,0.126l22.464,5.104
				l-15.06-17.229v0.256l11.739-19.782l-20.8,8.935h-0.254l0,0l-14.806-17.104l1.914,22.464c0,0.127-0.128,0.255-0.128,0.383
				l-20.674,8.807l22.204,5.105l0,0L184.825,641.955z M125.733,570.1c-13.786,13.404-22.465,32.164-22.465,52.84
				c0,40.455,33.061,73.51,73.517,73.51c16.978,0,32.674-5.742,45.182-15.564v-0.134v-0.122
				c-13.146,25.01-39.442,42.112-69.559,42.112c-43.138,0-78.367-35.222-78.367-78.49c0-33.819,21.572-62.79,51.692-73.767V570.1z"
				/>
			<path style="fill-rule:evenodd;clip-rule:evenodd;fill:#D7D8D9;" d="M184.71,641.829l11.743-19.781l-0.384,0.127l22.465,5.104
				l-15.061-17.229v0.256l11.739-19.781l-20.799,8.934h-0.255l0,0l-14.806-17.104l1.914,22.464c0,0.127-0.129,0.256-0.129,0.383
				l-20.673,8.807l22.204,5.106l0,0L184.71,641.829z M125.619,569.974c-13.785,13.404-22.465,32.164-22.465,52.84
				c0,40.455,33.061,73.51,73.517,73.51c16.978,0,32.674-5.742,45.182-15.564v-0.133v-0.123
				c-13.146,25.01-39.441,42.113-69.559,42.113c-43.137,0-78.366-35.223-78.366-78.49c0-33.82,21.572-62.791,51.691-73.768V569.974z
				"/>
			<path style="fill-rule:evenodd;clip-rule:evenodd;fill:#D6D8D9;" d="M184.596,641.703l11.743-19.781l-0.384,0.127l22.465,5.103
				l-15.061-17.228v0.256l11.739-19.781l-20.8,8.934h-0.255l0,0l-14.806-17.103l1.914,22.463c0,0.127-0.129,0.256-0.129,0.383
				l-20.674,8.807l22.204,5.105l0,0L184.596,641.703z M125.504,569.848c-13.786,13.404-22.465,32.164-22.465,52.84
				c0,40.455,33.061,73.51,73.517,73.51c16.978,0,32.674-5.742,45.182-15.565V680.5v-0.123
				c-13.146,25.01-39.442,42.113-69.56,42.113c-43.138,0-78.366-35.223-78.366-78.49c0-33.82,21.572-62.791,51.691-73.768V569.848z"
				/>
			<path style="fill-rule:evenodd;clip-rule:evenodd;fill:#D6D7D9;" d="M184.482,641.577l11.743-19.781l-0.384,0.127l22.465,5.104
				l-15.061-17.229v0.256l11.74-19.781l-20.8,8.934h-0.255l0,0l-14.806-17.104l1.914,22.463c0,0.127-0.129,0.256-0.129,0.383
				l-20.674,8.807l22.204,5.106l0,0L184.482,641.577z M125.39,569.722c-13.785,13.404-22.465,32.164-22.465,52.84
				c0,40.455,33.061,73.51,73.517,73.51c16.978,0,32.674-5.742,45.182-15.565v-0.133v-0.123
				c-13.147,25.01-39.442,42.113-69.559,42.113c-43.138,0-78.366-35.223-78.366-78.49c0-33.82,21.572-62.791,51.691-73.768V569.722z
				"/>
			<path style="fill-rule:evenodd;clip-rule:evenodd;fill:#D5D7D8;" d="M184.368,641.451l11.742-19.781l-0.383,0.127l22.464,5.104
				l-15.061-17.229v0.256l11.739-19.781l-20.799,8.934h-0.255l0,0l-14.806-17.103l1.914,22.463c0,0.127-0.129,0.256-0.129,0.383
				l-20.674,8.807l22.204,5.105l0,0L184.368,641.451z M125.276,569.596c-13.786,13.404-22.465,32.164-22.465,52.84
				c0,40.455,33.061,73.51,73.517,73.51c16.978,0,32.674-5.742,45.182-15.564v-0.133v-0.123
				c-13.147,25.01-39.442,42.113-69.56,42.113c-43.137,0-78.366-35.223-78.366-78.49c0-33.82,21.572-62.791,51.692-73.767V569.596z"
				/>
			<path style="fill-rule:evenodd;clip-rule:evenodd;fill:#D5D6D8;" d="M184.253,641.325l11.743-19.78l-0.384,0.126l22.465,5.104
				l-15.061-17.229v0.256l11.739-19.78l-20.8,8.933h-0.255l0,0l-14.806-17.104l1.915,22.463c0,0.127-0.129,0.257-0.129,0.383
				l-20.674,8.807l22.204,5.106l0,0L184.253,641.325z M125.161,569.47c-13.785,13.404-22.465,32.165-22.465,52.841
				c0,40.454,33.061,73.509,73.517,73.509c16.978,0,32.674-5.742,45.183-15.563v-0.133v-0.124
				c-13.147,25.01-39.442,42.114-69.559,42.114c-43.138,0-78.367-35.223-78.367-78.491c0-33.82,21.572-62.791,51.691-73.768V569.47z
				"/>
			<path style="fill-rule:evenodd;clip-rule:evenodd;fill:#D5D6D7;" d="M184.139,641.199l11.743-19.78l-0.384,0.127l22.464,5.102
				l-15.06-17.228v0.257l11.739-19.782l-20.799,8.935h-0.255l0,0l-14.806-17.104l1.913,22.464c0,0.127-0.128,0.255-0.128,0.382
				l-20.674,8.808l22.204,5.104l0,0L184.139,641.199z M125.047,569.344c-13.785,13.405-22.465,32.165-22.465,52.841
				c0,40.455,33.061,73.51,73.517,73.51c16.978,0,32.674-5.743,45.182-15.564v-0.134v-0.122
				c-13.147,25.009-39.442,42.113-69.559,42.113c-43.138,0-78.366-35.224-78.366-78.491c0-33.819,21.572-62.791,51.691-73.767
				V569.344z"/>
			<path style="fill-rule:evenodd;clip-rule:evenodd;fill:#D4D6D7;" d="M184.024,641.074l11.742-19.781l-0.383,0.127l22.465,5.103
				l-15.061-17.229v0.256l11.739-19.781l-20.8,8.933h-0.255l0,0L178.666,581.6l1.914,22.463c0,0.127-0.128,0.255-0.128,0.383
				l-20.674,8.806l22.204,5.106l0,0L184.024,641.074z M124.932,569.219c-13.785,13.403-22.465,32.164-22.465,52.84
				c0,40.454,33.061,73.51,73.517,73.51c16.978,0,32.674-5.742,45.182-15.565v-0.134v-0.122
				c-13.146,25.01-39.441,42.113-69.559,42.113c-43.137,0-78.366-35.223-78.366-78.491c0-33.82,21.573-62.79,51.691-73.768V569.219z
				"/>
			<path style="fill-rule:evenodd;clip-rule:evenodd;fill:#D4D5D7;" d="M183.91,640.948l11.743-19.781l-0.384,0.127l22.465,5.104
				l-15.061-17.229v0.256l11.739-19.781l-20.799,8.933h-0.255l0,0l-14.807-17.104l1.914,22.463c0,0.127-0.128,0.256-0.128,0.382
				l-20.674,8.808l22.205,5.105l0,0L183.91,640.948z M124.818,569.093c-13.786,13.404-22.465,32.163-22.465,52.84
				c0,40.455,33.061,73.51,73.517,73.51c16.978,0,32.674-5.742,45.182-15.564v-0.133v-0.123
				c-13.146,25.009-39.442,42.113-69.559,42.113c-43.138,0-78.366-35.223-78.366-78.49c0-33.82,21.572-62.792,51.691-73.768V569.093
				z"/>
			<path style="fill-rule:evenodd;clip-rule:evenodd;fill:#CFCFCF;" d="M183.795,640.822l11.743-19.781l-0.384,0.127l22.465,5.103
				l-15.061-17.228v0.256l11.739-19.781l-20.8,8.934h-0.255l0,0l-14.806-17.103l1.914,22.463c0,0.127-0.129,0.256-0.129,0.383
				L159.548,613l22.204,5.106l0,0L183.795,640.822z M124.704,568.967c-13.785,13.404-22.465,32.164-22.465,52.84
				c0,40.455,33.061,73.51,73.517,73.51c16.978,0,32.674-5.742,45.182-15.564v-0.133v-0.123
				c-13.146,25.01-39.442,42.113-69.559,42.113c-43.138,0-78.366-35.223-78.366-78.49c0-33.82,21.572-62.791,51.691-73.767V568.967z
				"/>
		</g>
		<path style="fill-rule:evenodd;clip-rule:evenodd;fill:#FEFEFE;" d="M183.795,640.822l11.743-19.781l-0.384,0.127l22.465,5.103
			l-15.061-17.228v0.256l11.739-19.781l-20.8,8.934h-0.255l0,0l-14.806-17.103l1.914,22.463c0,0.127-0.129,0.256-0.129,0.383
			L159.548,613l22.204,5.106l0,0L183.795,640.822z M124.704,568.967c-13.785,13.404-22.465,32.164-22.465,52.84
			c0,40.455,33.061,73.51,73.517,73.51c16.978,0,32.674-5.742,45.182-15.564v-0.133v-0.123
			c-13.146,25.01-39.442,42.113-69.559,42.113c-43.138,0-78.366-35.223-78.366-78.49c0-33.82,21.572-62.791,51.691-73.767V568.967z"
			/>
	</g>
	<path style="fill:#004510;" d="M108.939,219.936H68.957v-4.935l20.753-28.375c3.784-5.203,6.438-9.563,7.966-13.059
		c1.521-3.516,2.275-6.888,2.275-10.17c0-4.72-1.057-8.501-3.175-11.372c-2.116-2.871-5.042-4.307-8.752-4.307
		c-4.646,0-8.164,1.597-10.531,4.807c-2.367,3.193-3.553,7.534-3.553,12.987h-5.934l-0.109-0.268
		c-0.146-6.439,1.612-11.874,5.239-16.289c3.62-4.412,8.593-6.619,14.888-6.619c5.543,0,9.953,1.902,13.272,5.707
		c3.321,3.8,4.969,8.881,4.969,15.264c0,4.232-1.077,8.538-3.228,12.895c-2.152,4.359-5.148,9.132-8.97,14.316l-17.436,24.034
		h32.306V219.936L108.939,219.936z M131.272,178.287h6.508c4.361,0,7.589-1.38,9.706-4.127c2.119-2.763,3.176-6.365,3.176-10.818
		c0-4.807-1.042-8.608-3.157-11.406c-2.1-2.816-5.202-4.216-9.291-4.216c-3.856,0-6.979,1.436-9.382,4.289
		c-2.404,2.871-3.607,6.654-3.607,11.39h-5.882l-0.109-0.269c-0.124-5.957,1.58-10.924,5.149-14.872
		c3.588-3.944,8.179-5.92,13.831-5.92c5.704,0,10.262,1.865,13.668,5.616c3.392,3.748,5.094,8.972,5.094,15.66
		c0,3.605-0.895,6.994-2.691,10.135c-1.773,3.158-4.342,5.506-7.658,7.046c3.945,1.328,6.851,3.606,8.719,6.818
		c1.863,3.229,2.779,7.067,2.779,11.498c0,6.835-1.847,12.2-5.542,16.07c-3.699,3.897-8.431,5.83-14.207,5.83
		c-5.686,0-10.459-1.883-14.35-5.668c-3.894-3.786-5.761-9.056-5.634-15.856l0.162-0.268h5.882c0,4.899,1.294,8.857,3.841,11.871
		c2.564,3.035,5.919,4.538,10.099,4.538c4.199,0,7.48-1.396,9.847-4.213c2.369-2.815,3.552-6.848,3.552-12.089
		c0-5.348-1.183-9.293-3.552-11.839c-2.366-2.547-5.848-3.82-10.441-3.82h-6.508V178.287L131.272,178.287z M193.281,168.814
		l-4.142-0.322c-2.961,0-5.387,0.987-7.322,2.961c-1.918,1.993-3.336,4.698-4.251,8.16v40.323h-6.313v-56.825h5.578l0.735,9.383
		c1.327-3.303,3.086-5.866,5.273-7.699c2.207-1.846,4.768-2.761,7.713-2.761c0.664,0,1.33,0.054,1.992,0.182
		c0.665,0.124,1.183,0.268,1.578,0.394L193.281,168.814L193.281,168.814z M199.791,192.027c0-9.116,1.596-16.378,4.788-21.829
		c3.194-5.437,7.664-8.164,13.401-8.164c3.12,0,5.847,0.735,8.163,2.207c2.33,1.473,4.284,3.554,5.864,6.242v-32.556h6.314v82.009
		h-5.578l-0.522-7.371c-1.577,2.729-3.548,4.804-5.934,6.258c-2.387,1.455-5.167,2.188-8.362,2.188
		c-5.668,0-10.115-2.524-13.327-7.589c-3.191-5.058-4.807-11.819-4.807-20.305V192.027L199.791,192.027z M206.213,193.157
		c0,6.818,1.074,12.23,3.228,16.251c2.155,3.997,5.437,6.011,9.848,6.011c3.086,0,5.669-0.848,7.75-2.531
		c2.082-1.67,3.751-4.02,4.97-7.033v-27.821c-1.147-3.048-2.764-5.521-4.826-7.425c-2.079-1.919-4.664-2.872-7.783-2.872
		c-4.446,0-7.769,2.245-9.938,6.727c-2.173,4.489-3.247,10.335-3.247,17.583V193.157L206.213,193.157z"/>
	<path style="fill:#9FD3AB;" d="M277.388,161.948h0.116l5.354-21.182h7.24v28.559h-5.491v-17.987l-0.124-0.027l-5.153,18.015h-3.712
		l-5.119-17.872l-0.114,0.02v17.852h-5.51v-28.559h7.194L277.388,161.948L277.388,161.948z M307.415,163.141h-7.14l-1.607,6.184
		H292.9l8.103-28.559h5.724l8.1,28.559h-5.785L307.415,163.141L307.415,163.141z M301.407,158.794h4.874l-2.376-9.063h-0.112
		L301.407,158.794L301.407,158.794z M322.652,157.867v11.458h-5.527v-28.54h8.546c2.839,0,5.076,0.745,6.702,2.218
		c1.629,1.482,2.444,3.543,2.444,6.182c0,1.478-0.35,2.75-1.037,3.835c-0.689,1.1-1.674,1.957-2.973,2.592
		c1.497,0.496,2.569,1.32,3.223,2.475c0.652,1.154,0.981,2.593,0.981,4.314v2.081c0,0.792,0.087,1.628,0.275,2.505
		c0.177,0.876,0.506,1.523,0.978,1.922v0.417h-5.73c-0.454-0.421-0.75-1.107-0.869-2.047c-0.127-0.958-0.19-1.894-0.19-2.834v-2.004
		c0-1.447-0.293-2.575-0.905-3.37c-0.596-0.802-1.46-1.203-2.585-1.203H322.652L322.652,157.867z M322.652,153.557h2.984
		c1.185,0,2.098-0.356,2.715-1.067c0.622-0.722,0.935-1.725,0.935-3.038c0-1.332-0.308-2.38-0.925-3.172
		c-0.615-0.789-1.515-1.176-2.69-1.176h-3.019V153.557L322.652,153.557z M357.993,160.46l0.039,0.112
		c0.057,3.066-0.728,5.355-2.342,6.878c-1.613,1.529-3.917,2.28-6.911,2.29c-3.073-0.01-5.508-0.911-7.32-2.725
		c-1.799-1.81-2.703-4.38-2.703-7.709v-8.482c0-3.319,0.869-5.892,2.617-7.724c1.75-1.82,4.104-2.741,7.066-2.741
		c3.132,0,5.533,0.761,7.209,2.276c1.673,1.514,2.481,3.811,2.428,6.878l-0.043,0.12h-5.371c0-1.832-0.321-3.114-0.969-3.844
		c-0.646-0.734-1.73-1.101-3.254-1.101c-1.379,0-2.419,0.502-3.117,1.496c-0.691,1.006-1.035,2.542-1.035,4.599v8.522
		c0,2.068,0.379,3.616,1.122,4.62c0.747,0.993,1.865,1.492,3.371,1.492c1.373,0,2.364-0.357,2.957-1.085
		c0.603-0.722,0.906-2.023,0.906-3.874H357.993L357.993,160.46z M381.745,169.325h-5.516v-11.908h-9.196v11.908h-5.526v-28.559
		h5.526v12.34h9.196v-12.34h5.516V169.325L381.745,169.325z"/>
	<path style="fill:#1F8E14;" d="M67.301,281.277V247.04h12.922c2.272,0,4.008,0.107,5.217,0.321
		c1.678,0.283,3.088,0.814,4.231,1.598c1.138,0.79,2.055,1.892,2.746,3.297c0.693,1.408,1.035,2.962,1.035,4.662
		c0,2.905-0.926,5.365-2.784,7.374c-1.845,2.018-5.197,3.017-10.044,3.017h-8.785v13.968H67.301L67.301,281.277z M71.839,263.293
		h8.849c2.93,0,5.005-0.538,6.234-1.627c1.232-1.097,1.843-2.625,1.843-4.608c0-1.426-0.357-2.652-1.077-3.674
		c-0.727-1.018-1.683-1.697-2.867-2.028c-0.762-0.199-2.171-0.3-4.222-0.3h-8.76V263.293L71.839,263.293z M104.512,281.277
		l13.136-34.236h4.982l13.934,34.236h-5.153l-3.96-10.38h-14.418l-3.71,10.38H104.512L104.512,281.277z M114.362,267.216h11.669
		l-3.567-9.491c-1.079-2.886-1.891-5.266-2.46-7.152c-0.466,2.239-1.093,4.422-1.888,6.592L114.362,267.216L114.362,267.216z
		 M152.591,281.277V247.04h4.542v16.975l17.006-16.975h6.137l-14.357,13.881l14.979,20.355h-5.978l-12.183-17.283l-5.604,5.426
		v11.857H152.591L152.591,281.277z M198.064,281.277V247.04h4.543v34.236H198.064L198.064,281.277z M221.725,270.273l4.255-0.383
		c0.201,1.727,0.669,3.138,1.411,4.246c0.737,1.098,1.887,1.989,3.439,2.677c1.554,0.675,3.307,1.019,5.251,1.019
		c1.732,0,3.258-0.257,4.579-0.771c1.318-0.522,2.297-1.235,2.95-2.128c0.643-0.899,0.966-1.887,0.966-2.936
		c0-1.065-0.311-1.999-0.934-2.805c-0.62-0.799-1.645-1.467-3.088-2.014c-0.912-0.352-2.94-0.912-6.089-1.666
		c-3.153-0.761-5.349-1.469-6.611-2.135c-1.629-0.865-2.843-1.929-3.637-3.2c-0.806-1.262-1.208-2.688-1.208-4.26
		c0-1.74,0.497-3.354,1.477-4.854c0.979-1.509,2.407-2.647,4.292-3.428c1.882-0.777,3.978-1.168,6.285-1.168
		c2.532,0,4.77,0.402,6.713,1.226c1.935,0.812,3.423,2.012,4.468,3.605c1.044,1.588,1.599,3.386,1.68,5.398l-4.35,0.333
		c-0.235-2.161-1.021-3.79-2.365-4.893c-1.349-1.109-3.34-1.659-5.973-1.659c-2.738,0-4.739,0.506-5.99,1.511
		c-1.252,1.002-1.885,2.213-1.885,3.633c0,1.227,0.446,2.235,1.332,3.039c0.881,0.785,3.145,1.607,6.832,2.435
		c3.68,0.834,6.209,1.562,7.579,2.187c1.984,0.915,3.46,2.069,4.409,3.478c0.942,1.407,1.415,3.02,1.415,4.855
		c0,1.82-0.524,3.527-1.556,5.136c-1.054,1.614-2.535,2.866-4.49,3.757c-1.951,0.891-4.143,1.344-6.596,1.344
		c-3.091,0-5.679-0.459-7.768-1.36c-2.095-0.898-3.726-2.251-4.914-4.071C222.403,274.61,221.79,272.561,221.725,270.273
		L221.725,270.273z M276.421,281.277v-30.222h-11.284v-4.015h27.11v4.015h-11.286v30.222H276.421L276.421,281.277z M302.249,281.277
		l13.132-34.236h4.978l13.942,34.236h-5.154l-3.959-10.38h-14.423l-3.714,10.38H302.249L302.249,281.277z M312.094,267.216h11.671
		l-3.565-9.491c-1.081-2.886-1.893-5.266-2.462-7.152c-0.466,2.239-1.093,4.422-1.887,6.592L312.094,267.216L312.094,267.216z
		 M350.471,281.277V247.04h4.653l17.963,26.871V247.04h4.35v34.236h-4.653l-17.963-26.872v26.872H350.471L350.471,281.277z"/>
	<path style="fill:#004510;" d="M69.828,355.603v-52.009h22.117c5.561,0,9.601,0.476,12.116,1.405
		c2.537,0.938,4.538,2.588,6.055,4.98c1.518,2.393,2.278,5.11,2.278,8.188c0,3.914-1.14,7.136-3.428,9.673
		c-2.285,2.548-5.701,4.138-10.253,4.811c2.267,1.315,4.126,2.774,5.597,4.35c1.471,1.59,3.46,4.411,5.95,8.455l6.354,10.146
		h-12.566l-7.525-11.356c-2.703-4.029-4.552-6.581-5.561-7.622c-0.984-1.042-2.036-1.777-3.153-2.159
		c-1.125-0.39-2.891-0.58-5.32-0.58h-2.122v21.718H69.828L69.828,355.603z M80.366,325.6h7.763c5.038,0,8.181-0.213,9.436-0.639
		c1.246-0.414,2.241-1.164,2.94-2.205c0.725-1.031,1.066-2.347,1.066-3.907c0-1.755-0.476-3.16-1.409-4.249
		c-0.926-1.077-2.241-1.755-3.949-2.032c-0.851-0.123-3.402-0.184-7.655-0.184h-8.191V325.6L80.366,325.6z M124.305,355.603v-52.009
		h38.5v8.79h-27.974v11.543h26.006v8.798h-26.006v14.095h28.983v8.783H124.305L124.305,355.603z M174.778,355.603v-52.009h16.835
		c6.386,0,10.538,0.256,12.47,0.778c2.974,0.778,5.475,2.476,7.478,5.096c2.014,2.613,3.023,5.99,3.023,10.127
		c0,3.197-0.58,5.875-1.73,8.055c-1.164,2.181-2.631,3.889-4.411,5.136c-1.776,1.232-3.604,2.062-5.441,2.451
		c-2.501,0.497-6.116,0.76-10.87,0.76h-6.826v19.606H174.778L174.778,355.603z M185.305,312.384V327.2h5.727
		c4.123,0,6.873-0.271,8.271-0.829c1.388-0.544,2.479-1.387,3.272-2.559c0.782-1.16,1.175-2.516,1.175-4.055
		c0-1.902-0.548-3.467-1.646-4.695c-1.117-1.24-2.516-2.015-4.221-2.328c-1.247-0.23-3.748-0.35-7.528-0.35H185.305L185.305,312.384
		z M225.24,303.594h10.538v28.183c0,4.479,0.13,7.374,0.379,8.689c0.45,2.133,1.506,3.852,3.175,5.132
		c1.683,1.305,3.972,1.942,6.876,1.942c2.941,0,5.168-0.602,6.675-1.823c1.492-1.233,2.393-2.714,2.689-4.494
		c0.31-1.777,0.465-4.729,0.465-8.841v-28.788h10.538v27.354c0,6.246-0.285,10.668-0.854,13.241c-0.559,2.569-1.6,4.75-3.128,6.53
		c-1.518,1.776-3.546,3.186-6.094,4.241c-2.549,1.057-5.868,1.59-9.969,1.59c-4.956,0-8.715-0.57-11.263-1.719
		c-2.559-1.15-4.573-2.642-6.068-4.48c-1.481-1.838-2.455-3.759-2.927-5.773c-0.689-2.987-1.031-7.384-1.031-13.215V303.594
		L225.24,303.594z M279.718,303.594h20.806c4.123,0,7.183,0.173,9.208,0.512c2.04,0.346,3.842,1.066,5.431,2.137
		c1.601,1.093,2.938,2.534,3.993,4.34c1.067,1.802,1.601,3.834,1.601,6.076c0,2.425-0.652,4.663-1.957,6.678
		c-1.305,2.04-3.081,3.557-5.323,4.563c3.153,0.938,5.572,2.516,7.28,4.732c1.693,2.237,2.548,4.847,2.548,7.857
		c0,2.382-0.544,4.682-1.647,6.923c-1.103,2.241-2.608,4.029-4.516,5.37c-1.91,1.326-4.256,2.158-7.042,2.465
		c-1.755,0.191-5.975,0.311-12.671,0.357h-17.71V303.594L279.718,303.594z M290.256,312.244v11.982h6.876
		c4.076,0,6.613-0.061,7.608-0.18c1.791-0.213,3.215-0.829,4.234-1.859c1.03-1.031,1.539-2.372,1.539-4.04
		c0-1.607-0.451-2.905-1.326-3.914c-0.891-1.002-2.206-1.607-3.946-1.813c-1.046-0.119-4.033-0.177-8.964-0.177H290.256
		L290.256,312.244z M290.256,332.865v13.955h9.734c3.766,0,6.184-0.119,7.204-0.321c1.553-0.284,2.821-0.983,3.806-2.086
		c0.983-1.114,1.481-2.573,1.481-4.434c0-1.564-0.379-2.894-1.14-3.971c-0.756-1.089-1.859-1.897-3.283-2.394
		c-1.434-0.497-4.537-0.75-9.315-0.75H290.256L290.256,332.865z M334.494,355.603v-51.576h10.527v42.793H371.1v8.783H334.494
		L334.494,355.603z M380.225,355.603v-52.009h10.526v52.009H380.225L380.225,355.603z M436.057,336.422l10.156,3.132
		c-1.555,5.723-4.16,9.969-7.789,12.751c-3.637,2.774-8.234,4.173-13.82,4.173c-6.908,0-12.59-2.371-17.043-7.089
		c-4.433-4.718-6.664-11.176-6.664-19.367c0-8.653,2.242-15.386,6.699-20.179c4.469-4.797,10.357-7.193,17.648-7.193
		c6.365,0,11.533,1.889,15.504,5.65c2.373,2.235,4.139,5.428,5.324,9.602l-10.383,2.472c-0.617-2.685-1.9-4.818-3.854-6.379
		c-1.957-1.563-4.328-2.335-7.113-2.335c-3.863,0-7.006,1.377-9.4,4.151c-2.406,2.761-3.604,7.24-3.604,13.439
		c0,6.556,1.186,11.237,3.547,14.022c2.367,2.797,5.453,4.199,9.232,4.199c2.797,0,5.205-0.891,7.219-2.667
		C433.721,343.025,435.178,340.239,436.057,336.422L436.057,336.422z M479.463,303.594h19.143c4.326,0,7.623,0.324,9.887,0.991
		c3.035,0.894,5.654,2.493,7.809,4.793c2.185,2.288,3.832,5.104,4.971,8.43c1.125,3.322,1.693,7.424,1.693,12.286
		c0,4.292-0.533,7.964-1.6,11.06c-1.293,3.792-3.142,6.862-5.547,9.197c-1.826,1.777-4.281,3.154-7.363,4.148
		c-2.309,0.734-5.404,1.103-9.279,1.103h-19.713V303.594L479.463,303.594z M489.99,312.384v34.435h7.809
		c2.916,0,5.027-0.181,6.318-0.497c1.707-0.43,3.117-1.153,4.221-2.17c1.127-1.021,2.039-2.692,2.738-5.017
		c0.725-2.321,1.066-5.511,1.066-9.529c0-4.018-0.342-7.089-1.066-9.247c-0.699-2.155-1.693-3.82-2.963-5.039
		c-1.268-1.196-2.879-2.018-4.836-2.44c-1.459-0.331-4.328-0.497-8.596-0.497H489.99L489.99,312.384z M580.787,355.603h-11.346
		l-4.49-11.843h-20.863l-4.315,11.843h-11.142l20.199-52.009h11.119L580.787,355.603L580.787,355.603z M561.539,334.977
		l-7.234-19.252l-7.016,19.252H561.539L561.539,334.977z M595.391,355.603v-21.884l-19.063-30.125h12.318l12.291,20.597
		l11.971-20.597H625l-19.072,30.197v21.811H595.391L595.391,355.603z"/>
	<path style="fill:#9FD3AB;" d="M282.044,222.312h-8.3v-35.483l-7.791,0.214v-6.364l16.091-1.64V222.312L282.044,222.312z
		 M306.177,216.48c1.746,0,3.201-0.794,4.344-2.39c1.124-1.595,1.695-3.789,1.695-6.599v-2.899
		c-0.852,1.188-1.842,2.089-2.966,2.688c-1.159,0.604-2.373,0.912-3.661,0.912c-3.537,0-6.313-1.299-8.322-3.885
		c-2.042-2.591-3.039-6.066-3.039-10.448c0-4.221,1.215-7.74,3.666-10.567c2.429-2.843,5.558-4.253,9.369-4.253
		c3.885,0,7.068,1.449,9.553,4.349c2.485,2.899,3.717,6.923,3.717,12.055v11.552c0,4.858-1.359,8.726-4.063,11.602
		c-2.726,2.889-6.15,4.321-10.292,4.338c-1.326-0.017-2.709-0.173-4.125-0.498c-1.433-0.318-2.759-0.761-3.996-1.349l1.383-6.011
		c1.086,0.487,2.154,0.845,3.201,1.068C303.692,216.374,304.867,216.48,306.177,216.48L306.177,216.48z M307.116,202.085
		c1.12,0,2.1-0.264,2.984-0.817c0.861-0.537,1.562-1.271,2.115-2.193v-5.094c0-2.753-0.459-4.852-1.366-6.307
		c-0.885-1.439-2.075-2.166-3.548-2.166c-1.456,0-2.614,0.822-3.498,2.451c-0.885,1.629-1.31,3.6-1.31,5.899
		c0,2.468,0.386,4.455,1.181,5.966C304.465,201.341,305.606,202.085,307.116,202.085L307.116,202.085z M326.979,203.468
		l2.228-23.819h21.85v6.654h-15.061l-1.03,10.343c0.739-0.604,1.64-1.108,2.727-1.523c1.068-0.413,2.227-0.637,3.458-0.671
		c3.61-0.067,6.37,1.153,8.322,3.66c1.931,2.496,2.905,6.012,2.905,10.521c0,4.175-1.064,7.611-3.201,10.276
		c-2.133,2.681-5.446,4.007-9.923,4.023c-3.605-0.017-6.683-1.046-9.258-3.146c-2.574-2.087-3.828-4.931-3.716-8.551l0.051-0.146
		l8.025-0.415c0,1.842,0.441,3.263,1.349,4.287c0.9,1.002,2.076,1.517,3.549,1.517c1.695,0,2.909-0.66,3.683-1.992
		c0.755-1.326,1.124-3.258,1.124-5.792c0-2.548-0.425-4.556-1.27-6.028c-0.827-1.482-2.115-2.217-3.795-2.217
		c-1.358,0-2.39,0.319-3.111,0.941c-0.716,0.621-1.215,1.488-1.505,2.573L326.979,203.468L326.979,203.468z M372.833,179.039
		c1.489,0,2.872,0.151,4.103,0.453c1.253,0.296,2.501,0.755,3.811,1.355l-1.456,6.128c-1.124-0.448-2.172-0.783-3.111-1.002
		c-0.94-0.24-2.043-0.341-3.297-0.341c-2.188,0-3.956,0.951-5.3,2.865c-1.344,1.892-2.026,4.578-2.026,8.06v1.298
		c0.997-1.085,2.194-1.914,3.593-2.495c1.399-0.588,2.961-0.885,4.696-0.885c3.273,0,5.831,1.299,7.656,3.895
		c1.818,2.608,2.726,6.012,2.726,10.237c0,4.214-1.22,7.655-3.648,10.325c-2.43,2.659-5.597,3.985-9.482,4.002
		c-4.085-0.017-7.399-1.517-9.957-4.556c-2.557-3.017-3.844-7.157-3.844-12.413v-9.235c0-5.389,1.448-9.682,4.358-12.894
		C364.584,180.639,368.301,179.039,372.833,179.039L372.833,179.039z M371.048,200.843c-1.293,0-2.396,0.224-3.313,0.671
		c-0.924,0.459-1.641,1.109-2.178,1.926v2.642c0,3.297,0.522,5.865,1.512,7.68c1.013,1.813,2.356,2.719,4.029,2.719
		c1.455,0,2.636-0.75,3.521-2.261c0.861-1.5,1.304-3.369,1.304-5.613c0-2.424-0.442-4.326-1.327-5.709
		C373.713,201.514,372.521,200.843,371.048,200.843L371.048,200.843z"/>
</g>
<g id="Layer_1">
</g>
</svg>
