<svg xmlns="http://www.w3.org/2000/svg" xmlns:xlink="http://www.w3.org/1999/xlink" viewBox="118.82 0 885.47 276.16">
	<path fill="#027735" transform="matrix(0.990138 0 0 0.98983 118.817 0)" d="M 0 0 L 318.425 0 L 766.495 0 L 803.537 0 L 870.302 0 L 893.236 0 C 894.007 1.195 893.96 2.2821 893.984 3.6539 C 894.374 25.6906 894.005 47.8015 894.007 69.8447 L 894.008 201.529 L 894.002 256.371 C 894.001 261.335 894.734 273.255 893.865 277.521 C 893.789 277.893 893.621 278.235 893.455 278.574 C 893.429 278.626 893.406 278.679 893.381 278.731 C 893.337 278.823 893.287 278.912 893.236 279 L 554.802 279 L 530.123 279 L 64.9739 279 L 59.9167 279 L 47.066 279 L 0 279 L 0 0 Z M 870.302 0 C 871.062 1.0996 871.222 1.3147 871.289 2.6343 C 870.43 4.9059 868.382 6.0109 866.278 6.96 C 861.011 9.3358 851.604 10.2786 847.41 13.7122 L 847.29 14.3802 C 847.637 14.4753 849.084 14.5841 849.294 14.7295 C 849.562 14.9148 849.713 15.5901 849.977 15.8045 C 850.52 16.2446 853.076 15.514 853.757 15.3538 C 849.547 18.8478 842.4 20.0864 837.197 21.7489 C 829.442 24.2272 786.353 36.5204 783.487 40.5056 L 783.698 41.7776 C 780.96 44.0464 773.436 44.829 769.77 45.7507 C 762.665 47.5369 755.748 49.967 748.591 51.5883 C 738.099 53.9652 727.421 55.4906 716.964 58.0367 C 705.34 60.867 693.957 64.4745 682.388 67.4861 C 672.658 70.0189 662.807 71.8432 653.218 74.9153 C 662.051 74.4018 670.027 71.5165 678.594 69.6301 Q 705.398 63.9655 731.99 57.3768 C 745.42 54.0352 759.143 49.5833 772.878 47.9505 C 769.228 51.7316 721.809 61.452 712.189 63.7117 C 700.896 66.3647 690.047 70.1398 678.881 73.1683 Q 640.455 83.2602 687 71 C 590.382 97.5609 679 75 665 81 C 698 74 684 78 683 78 C 606 96 641 90 651 87 C 672 81 700 75 631 94 C 632 93 657 88 657 89 C 585.946 109.433 585.1 109.763 669 82 C 668 94 608.278 103.045 613.505 101.543 C 623.129 98.7758 633.006 96.6179 642.736 94.2424 C 655.406 91.1493 668.022 87.9179 680.759 85.096 C 685.791 83.9811 691.956 81.844 697.065 81.7315 C 698.049 81.7098 698.823 82.4172 699.547 83.0046 C 703.653 83.3029 707.518 81.9463 711.745 82.3318 C 714.461 81.2151 717.98 79.2897 719.678 76.8146 C 719.383 78.6224 718.707 79.5349 717.218 80.621 C 715.632 81.7784 713.767 82.7275 711.942 83.4491 C 722.743 81.4897 733.254 78.7699 743.828 75.8558 C 753.138 73.2897 762.667 70.2734 772.299 69.2707 C 771.888 70.8121 770.226 71.9056 768.905 72.6612 C 767.115 73.6856 765.159 74.3639 763.22 75.0473 C 767.761 74.2157 774.537 72.2046 778.853 74.2474 C 776.086 75.02 772.892 75.2841 770.246 76.283 L 770.23 77.1972 L 769.886 76.4517 L 769.747 76.9177 C 770.346 77.2137 771.64 77.6412 771.846 78.2394 C 771.395 78.5723 709.318 99.1239 704.737 100.147 C 709.504 99.7929 714.419 99.646 719.136 98.9265 C 715.804 101.691 695.664 107.684 690.631 108.826 C 702.722 108.182 714.829 107.946 726.921 107.289 C 723.775 109.045 719.413 109.828 715.927 110.829 C 721.158 110.668 726.356 110.354 731.499 109.329 C 736.311 108.37 754.768 100.911 757.763 103.689 C 757.314 104.769 756.85 105.029 755.753 105.475 C 753.013 106.588 750.05 107.26 747.267 108.285 C 741.396 110.447 735.779 113.118 729.8 115.065 C 710.194 121.449 690.002 126.018 670.211 131.769 C 660.705 134.531 650.889 139.359 711 134 c 8.891 -0.705 17.724 -2.276 26.514 -3.757 c 3.564 1.606 20.411 -3.862 21.819 -2.305 c 0.187 0.206 0.362 0.869 0.476 1.169 c 0.293 0.77 0.346 1.355 0.229 2.169 c -1.276 2.097 -4.769 1.357 -6.132 3.642 c -0.686 1.15 -0.294 2.775 -0.826 3.813 c -0.335 0.653 -9.484 2.711 64.92 3.269 c -2.593 4.97 -15.923 5.049 -16.807 9.366 c -2.572 0.939 -5.166 1.767 -7.78 2.577 l -0.778 -0.053 l -0.519 0.646 c 0.023 0.042 0.047 0.083 0.07 0.125 c 0.914 1.672 0.64 2.505 2.631 3.215 c -2.68 1.577 -20.22 5.314 -24.637 6.421 c 1.805 0.425 4.023 1.564 5.844 1.407 c 3.464 0.719 7.662 0.129 10.895 1.252 c 0.483 0.936 0.639 1.452 0.327 2.519 c -0.376 1.286 -1.173 2.16 -2.221 2.939 c -1.786 0.405 -2.369 0.383 -22.025 1.586 c -4.135 2.521 -21.709 9.427 -26.479 10.242 c -5.787 0.731 -15.54 2.108 -20.416 5.081 l 39.34 0.686 q 1.659 0.259 3.326 0.453 c 4.674 -0.453 -0.321 1.245 -0.801 1.961 c -0.137 0.204 -0.084 0.13 -0.254 0.324 l 0.115 1.212 l 5.59 2.612 c 0.936 0.564 1.913 1.096 2.711 1.851 c 0.042 0.746 0.136 1.09 -0.424 1.672 c -0.953 0.99 -4.197 2.132 -8.491 1.722 c 0.581 2.596 -2.065 6.173 74.783 10.184 c -1.775 1.903 -10.802 3.752 -11.048 6.035 c -1.916 -0.597 -3.674 0.929 -5.599 1.279 c -1.425 1.42 -4.453 3.487 -6.403 4.019 c -0.594 1.501 -3.284 3.511 -4.728 4.348 c 1.139 1.662 4.695 2.941 13.333 2.31 C 766.167 241.114 764.47 241.397 659 240 L 650 246 C 764.077 244.938 743 248 749 251 L 764 252 C 770 251 769 254 767.99 253.331 C 767.358 256.62 764.997 259.268 764.501 262.672 L 765.241 262.99 C 764.042 265.2 760.339 266.423 758.514 268.259 C 755.841 270.947 754.646 276.842 751 279 L 893.236 279 C 893.287 278.912 893.337 278.823 893.381 278.731 C 893.406 278.679 893.429 278.626 893.455 278.574 C 893.621 278.235 893.789 277.893 893.865 277.521 C 894.734 273.255 894.001 261.335 894.002 256.371 L 894.008 201.529 L 894.007 69.8447 C 894.005 47.8015 894.374 25.6906 893.984 3.6539 C 893.96 2.2821 894.007 1.195 893.236 0 L 870.302 0 Z M 0 0 L 0 279 L 47.066 279 L 59.9167 279 L 64.9739 279 C 66.8219 275.209 68.9374 275.894 71.3011 273.23 C 84.9456 270.038 98.32 266.073 111.893 262.626 L 185.968 244.325 L 220.69 235.773 C 236.227 232.096 251.386 228.928 266.08 222.416 C 251.809 224.242 238.02 227.858 224.048 231.168 C 199.995 236.867 175.946 243.1 151.772 248.234 C 139.319 250.878 126.737 250.961 114.211 252.854 C 107.592 253.855 101.163 255.983 94.5797 257.208 C 89.5862 258.138 84.4543 258.345 79.4281 259.144 C 72.4999 260.245 27.9742 268.931 24.9034 267.343 L 26.3474 266.656 L 26.4282 265.648 C 28.1296 263.061 35.9114 261.256 38.9664 260.208 C 35.3422 260.013 31.7406 259.784 28.1318 259.39 C 33.4128 256.273 39.7747 255.139 45.4558 252.87 C 52.0862 241.828 66.7721 243.783 71.1295 238.976 C 70.1803 238.871 69.2591 238.722 68.3233 238.532 L 68.1765 237.65 C 66.9041 237.04 63.4658 238.232 61.9486 238.521 C 72.0956 233.39 132.275 216.93 135.13 211.758 C 135.462 211.157 139.447 210.041 140.22 209.788 C 164.109 201.944 188.758 197.996 213.109 192.074 C 221.072 190.137 228.783 187.252 236.735 185.341 C 245.733 183.178 254.569 182.15 263.357 179.02 C 256.119 178.615 249.864 181.113 242.986 182.93 C 239.283 183.908 235.498 184.634 231.745 185.397 C 230.146 184.879 229.902 184.848 228.948 183.408 Q 273 171.384 316.808 158.497 C 327.049 155.456 274 178 261 173 C 268 172 266 170 245 176 C 248 171 332.682 150.995 262 170 C 257 172 258 170 255 169 C 252 170 267 166 255 168 C 242 169 285 164 253 155 C 301.338 152.952 290.55 155.368 279.775 158.05 C 265.335 161.642 250.946 165.346 236.431 168.63 C 232.492 169.522 224.43 172.065 220.805 171.928 C 219.725 171.887 219.331 171.158 218.667 170.417 C 214.21 169.954 209.424 171.245 204.793 170.994 C 202.119 173.075 199.757 175.005 196.684 176.516 C 199.133 173.699 201.823 171.749 204.88 169.655 C 196.473 172.916 187.042 174.058 178.291 176.199 C 166.613 179.055 154.627 183.836 142.547 184.41 C 146.009 182.286 149.77 180.65 153.261 178.516 C 147.253 179.388 141.479 180.281 135.387 180.017 C 139.299 178.438 143.77 178.321 147.785 176.873 L 147.98 176.422 L 146.029 175.391 L 145.931 174.965 C 156.63 171.013 167.881 168.227 178.773 164.811 C 187.518 162.068 196.083 158.632 204.858 156.039 C 214.514 153.185 224.077 151.469 233.455 147.58 C 229.377 148.155 225.395 148.83 221.425 149.938 C 214.051 151.997 206.601 154.985 198.935 155.605 C 206.79 150.239 216.727 147.625 225.807 145.103 C 222.967 145.085 221.966 145.108 219.606 143.535 C 215.822 141.012 206.495 143.713 202.141 144.569 C 203.602 143.505 205.274 142.538 205.672 140.696 C 200.028 137.148 172.063 149.671 164.561 150.125 C 163.595 150.183 161.821 150.281 161.073 149.612 C 161.917 147.709 167.093 146.436 169.051 145.679 C 174.657 143.512 180.001 141.181 185.794 139.465 C 193.511 137.179 201.458 135.665 209.134 133.249 C 218.223 130.388 227.012 126.718 236.202 124.135 C 244.711 121.742 257.272 121.412 264.259 115.982 C 264.833 115.536 265.065 115.466 265.157 114.723 C 261.063 112.119 234.331 119.604 228.054 120.727 C 223.968 121.458 219.763 120.933 215.671 121.474 C 213.002 121.827 210.591 123.117 207.877 123.375 L 207.648 122.986 L 208.513 121.592 C 207.128 121.031 193.204 125.168 190.762 125.727 Q 176.152 129.086 161.247 130.693 C 173.161 124.678 186.564 124.896 199.122 121.188 C 201.004 120.632 203.117 119.98 204.813 118.972 C 207.77 117.213 210.182 114.261 213.618 113.434 C 216.886 112.647 220.675 112.837 224.042 112.539 C 229.389 112.065 234.466 110.469 239.484 108.644 Q 236.039 107.796 232.583 106.992 C 235.291 105.84 237.707 104.415 240.201 102.871 C 232.168 104.692 224.301 107.31 216.232 108.93 C 209.412 110.3 202.44 110.969 195.569 112.054 C 188.663 113.145 181.801 114.663 174.951 116.061 L 143.83 122.357 C 137.728 123.552 131.591 124.936 125.409 125.611 C 130.382 123.514 132.783 120.578 137.246 118.13 C 143.29 114.816 150.277 113.045 156.541 110.118 C 159.141 108.904 161.023 106.646 163.618 105.488 C 172.65 101.454 183.213 99.5196 192.684 96.5943 C 201.576 93.8479 210.167 90.2072 219.134 87.6814 C 227.615 85.2928 264.778 79.3872 269.002 75.0186 C 268.35 74.8512 267.717 74.7118 267.117 74.3965 C 272.707 72.2768 278.592 70.8341 284.346 69.227 Q 301.299 64.4707 318.363 60.1272 C 326.951 57.9675 335.834 56.1185 344.221 53.2785 C 346.084 52.6478 347.946 52.0304 349.39 50.6388 C 323.626 51.0462 297.936 60.9436 272.885 66.1576 C 261.971 68.4291 250.761 68.5041 239.803 70.9668 C 234.767 72.0985 214.262 78.5322 211.186 78.128 Q 211.903 77.2228 212.565 76.2772 C 211.692 75.9686 210.819 75.9521 209.903 75.9056 L 209.907 75.5554 C 218.048 69.879 238.467 66.2672 248.515 62.623 C 251.028 61.7115 252.88 59.4808 255.222 58.2112 C 258.825 56.2576 263.638 55.4743 267.608 54.3684 C 261.661 54.4588 255.854 54.9422 249.946 55.5985 L 250.073 55.5423 C 264.207 49.3699 279.833 47.9377 294.637 43.9552 C 303.243 41.6402 311.505 38.1304 320.069 35.6589 C 332.984 31.9318 346.398 29.2229 359.019 24.5522 C 361.876 23.4952 364.096 21.2863 366.9 20.2252 C 369.842 19.112 374.711 19.3497 376.596 16.5469 C 367.794 17.4958 359.636 20.0238 351.116 22.2455 C 336.212 26.1321 321.373 30.4244 306.423 34.0978 C 298.074 36.1494 289.769 38.3396 281.124 38.5037 C 290.017 35.2447 299.842 33.705 309.081 31.6011 C 312.57 30.8067 316.412 30.2282 319.693 28.7783 C 320.595 28.3796 321.491 27.9735 321.865 26.9962 L 321.329 26.2943 C 315.37 24.4214 310.534 28.7573 304.935 29.0754 L 304.539 28.6277 C 305.2 26.8668 306.865 25.101 308.465 24.116 C 312.736 21.4854 317.795 20.7863 322.416 19.0313 C 327.319 17.1691 332.069 14.6182 337.113 13.1711 C 341.427 11.9334 346.389 11.7033 350.428 9.7658 C 351.167 8.9882 351.173 7.5003 351.315 6.4707 C 349.817 3.9985 328.663 9.6451 323.716 7.5378 L 323.458 6.8747 L 324.522 5.4338 C 320.066 4.759 314.257 6.0006 309.669 6.1214 C 312.527 5.2785 320.474 3.2835 322.217 1.0818 L 318.425 0 L 0 0 Z M 462.104 30.3451 C 447.576 32.0452 434.273 37.7158 425.031 49.42 C 416.745 59.9133 412.459 73.8118 414.039 87.1468 Q 414.178 88.3598 414.377 89.5645 Q 414.575 90.7692 414.832 91.9628 Q 415.09 93.1564 415.405 94.3359 Q 415.72 95.5155 416.092 96.6782 Q 416.465 97.841 416.894 98.9841 Q 417.323 100.127 417.807 101.248 Q 418.291 102.369 418.829 103.465 Q 419.368 104.56 419.959 105.629 Q 420.55 106.697 421.193 107.735 Q 421.836 108.773 422.529 109.778 Q 423.222 110.783 423.963 111.753 Q 424.704 112.723 425.492 113.656 Q 426.279 114.589 427.112 115.482 Q 427.944 116.375 428.819 117.227 Q 429.694 118.078 430.61 118.886 Q 431.525 119.693 432.479 120.455 Q 433.535 121.276 434.631 122.045 Q 435.726 122.813 436.858 123.527 Q 437.99 124.24 439.156 124.897 Q 440.321 125.555 441.518 126.154 Q 442.714 126.753 443.939 127.292 Q 445.163 127.832 446.413 128.311 Q 447.662 128.789 448.934 129.206 Q 450.205 129.623 451.495 129.977 Q 452.786 130.33 454.092 130.62 Q 455.398 130.91 456.717 131.136 Q 458.036 131.361 459.364 131.522 Q 460.693 131.682 462.027 131.777 Q 463.362 131.872 464.7 131.901 Q 466.037 131.93 467.375 131.894 Q 468.712 131.857 470.046 131.755 Q 471.381 131.653 472.708 131.485 C 474.603 131.25 478.159 130.784 479.599 129.461 C 484.723 128.23 493.978 124.319 496.805 119.761 C 497.073 119.329 497.296 118.882 497.49 118.413 C 492.517 122.372 483.729 121.944 477.669 121.25 Q 476.496 121.126 475.331 120.943 Q 474.165 120.76 473.011 120.52 Q 471.856 120.28 470.714 119.983 Q 469.573 119.686 468.447 119.332 Q 467.322 118.979 466.216 118.57 Q 465.109 118.161 464.024 117.698 Q 462.94 117.234 461.879 116.718 Q 460.819 116.201 459.785 115.632 Q 458.752 115.064 457.748 114.444 Q 456.744 113.825 455.772 113.157 Q 454.8 112.488 453.862 111.773 Q 452.924 111.057 452.023 110.296 Q 451.122 109.534 450.26 108.729 Q 449.398 107.924 448.577 107.077 Q 447.756 106.23 446.978 105.343 Q 446.2 104.456 445.467 103.532 Q 444.767 102.65 444.111 101.735 Q 443.455 100.819 442.845 99.8725 Q 442.236 98.9259 441.673 97.9503 Q 441.111 96.9748 440.597 95.9727 Q 440.083 94.9706 439.62 93.9443 Q 439.156 92.9181 438.743 91.8703 Q 438.331 90.8225 437.97 89.7556 Q 437.61 88.6887 437.302 87.6053 Q 436.995 86.5219 436.741 85.4247 Q 436.488 84.3275 436.289 83.2191 Q 436.089 82.1108 435.945 80.9939 Q 435.8 79.8771 435.711 78.7544 Q 435.622 77.6318 435.588 76.5062 Q 435.555 75.3805 435.576 74.2546 Q 435.598 73.1286 435.675 72.0051 Q 435.753 70.8816 435.885 69.7633 C 437.228 58.3901 442.779 46.9381 451.892 39.8237 C 455.988 36.6254 462.482 34.275 465.722 30.3342 L 462.104 30.3451 Z M 766.495 0 C 765.679 1.3846 763.608 1.7339 762.107 2.1221 L 653.092 30.3424 C 667.89 30.0528 686.664 24.0012 701.309 20.3602 C 711.751 17.7639 722.3 15.9205 732.737 13.4384 C 743.708 10.829 754.318 7.67 765.419 5.452 C 772.207 4.0959 778.912 2.8238 785.812 2.1774 C 791.292 1.664 797.802 2.1208 803.069 0.6496 L 803.537 0 L 766.495 0 Z M 493.186 53.9203 C 494.074 56.0808 493.684 58.4704 492.819 60.5842 C 492.393 61.6258 491.76 62.754 490.853 63.4394 C 486.292 64.033 481.515 63.8121 476.917 63.8397 C 480.963 64.9022 486.063 66.5386 488.334 70.3985 C 489.329 72.0914 489.604 73.9735 489.085 75.8721 C 488.408 78.3445 486.722 80.748 484.853 82.4613 C 488.407 81.324 491.94 77.7142 494.844 75.3694 C 498.108 75.3137 501.537 77.7518 503.778 79.9389 C 504.202 80.3524 504.431 80.7789 504.601 81.3384 C 505.26 77.9047 504.482 74.9295 502.538 72.0459 C 501.954 71.1788 501.306 70.5429 500.448 69.9373 C 503.614 68.748 507.772 66.1402 509.266 62.9809 C 509.34 62.8242 509.351 62.7788 509.416 62.601 C 505.804 62.9633 502.097 62.8885 498.466 62.9453 C 498.984 61.1435 498.027 58.4313 497.137 56.8241 C 496.491 55.6581 495.636 54.4442 494.396 53.8828 L 493.186 53.9203 Z M 647.08 162.899 C 647.271 166.175 647.545 165.342 646.631 163.67 C 646.608 163.628 646.584 163.587 646.561 163.545 Z"/>
</svg>