<svg xmlns="http://www.w3.org/2000/svg" xmlns:xlink="http://www.w3.org/1999/xlink" viewBox="118.82 0 885.47 276.16">
	<path fill="#034629" transform="matrix(0.990138 0 0 0.98983 118.817 0)" d="M0 0L318.425 0L766.495 0L803.537 0L870.302 0L893.236 0C894.007 1.195 893.96 2.28209 893.984 3.65386C894.374 25.6906 894.005 47.8015 894.007 69.8447L894.008 201.529L894.002 256.371C894.001 261.335 894.734 273.255 893.865 277.521C893.789 277.893 893.621 278.235 893.455 278.574C893.429 278.626 893.406 278.679 893.381 278.731C893.337 278.823 893.287 278.912 893.236 279L554.802 279L530.123 279L64.9739 279L59.9167 279L47.066 279L0 279L0 0ZM870.302 0C871.062 1.09956 871.222 1.31466 871.289 2.63431C870.43 4.90589 868.382 6.01087 866.278 6.96001C861.011 9.33584 851.604 10.2786 847.41 13.7122L847.29 14.3802C847.637 14.4753 849.084 14.5841 849.294 14.7295C849.562 14.9148 849.713 15.5901 849.977 15.8045C850.52 16.2446 853.076 15.514 853.757 15.3538C849.547 18.8478 842.4 20.0864 837.197 21.7489C829.442 24.2272 786.353 36.5204 783.487 40.5056L783.698 41.7776C780.96 44.0464 773.436 44.829 769.77 45.7507C762.665 47.5369 755.748 49.967 748.591 51.5883C738.099 53.9652 727.421 55.4906 716.964 58.0367C705.34 60.867 693.957 64.4745 682.388 67.4861C672.658 70.0189 662.807 71.8432 653.218 74.9153C662.051 74.4018 670.027 71.5165 678.594 69.6301Q705.398 63.9655 731.99 57.3768C745.42 54.0352 759.143 49.5833 772.878 47.9505C769.228 51.7316 721.809 61.452 712.189 63.7117C700.896 66.3647 690.047 70.1398 678.881 73.1683Q640.455 83.2602 602.246 94.1461C590.382 97.5609 578.957 102.249 566.88 104.928C573.694 104.983 588.047 103.263 593.699 99.3684C593.686 99.4067 593.673 99.4452 593.659 99.4833C592.47 102.766 587.556 103.18 586.509 105.993C586.205 106.81 586.515 108.105 586.246 108.734C585.946 109.433 585.1 109.763 584.841 110.652C588.411 111.608 608.278 103.045 613.505 101.543C623.129 98.7758 633.006 96.6179 642.736 94.2424C655.406 91.1493 668.022 87.9179 680.759 85.096C685.791 83.9811 691.956 81.844 697.065 81.7315C698.049 81.7098 698.823 82.4172 699.547 83.0046C703.653 83.3029 707.518 81.9463 711.745 82.3318C714.461 81.2151 717.98 79.2897 719.678 76.8146C719.383 78.6224 718.707 79.5349 717.218 80.621C715.632 81.7784 713.767 82.7275 711.942 83.4491C722.743 81.4897 733.254 78.7699 743.828 75.8558C753.138 73.2897 762.667 70.2734 772.299 69.2707C771.888 70.8121 770.226 71.9056 768.905 72.6612C767.115 73.6856 765.159 74.3639 763.22 75.0473C767.761 74.2157 774.537 72.2046 778.853 74.2474C776.086 75.02 772.892 75.2841 770.246 76.283L770.23 77.1972L769.886 76.4517L769.747 76.9177C770.346 77.2137 771.64 77.6412 771.846 78.2394C771.395 78.5723 709.318 99.1239 704.737 100.147C709.504 99.7929 714.419 99.646 719.136 98.9265C715.804 101.691 695.664 107.684 690.631 108.826C702.722 108.182 714.829 107.946 726.921 107.289C723.775 109.045 719.413 109.828 715.927 110.829C721.158 110.668 726.356 110.354 731.499 109.329C736.311 108.37 754.768 100.911 757.763 103.689C757.314 104.769 756.85 105.029 755.753 105.475C753.013 106.588 750.05 107.26 747.267 108.285C741.396 110.447 735.779 113.118 729.8 115.065C710.194 121.449 690.002 126.018 670.211 131.769C660.705 134.531 650.889 139.359 641.772 141.753C650.663 141.048 659.496 139.477 668.286 137.996C671.85 139.602 688.697 134.134 690.105 135.691C690.292 135.897 690.467 136.56 690.581 136.86C690.874 137.63 690.927 138.215 690.81 139.029C689.534 141.126 686.041 140.386 684.678 142.671C683.992 143.821 684.384 145.446 683.852 146.484C683.517 147.137 674.368 149.195 672.445 151.009C669.852 155.979 656.522 156.058 655.638 160.375C653.066 161.314 650.472 162.142 647.858 162.952L647.08 162.899L646.561 163.545C646.584 163.587 646.608 163.628 646.631 163.67C647.545 165.342 647.271 166.175 649.262 166.885C646.582 168.462 629.042 172.199 624.625 173.306C626.43 173.731 628.648 174.87 630.469 174.713C633.933 175.432 638.131 174.842 641.364 175.965C641.847 176.901 642.003 177.417 641.691 178.484C641.315 179.77 640.518 180.644 639.47 181.423C637.684 181.828 637.101 181.806 635.944 183.269C631.809 185.79 614.235 192.696 609.465 193.511C603.678 194.242 593.925 195.619 589.049 198.592L589.617 199.471Q591.276 199.73 592.943 199.924C593.114 200.784 592.622 201.169 592.142 201.885C592.005 202.089 592.058 202.015 591.888 202.209L592.003 203.421L597.593 206.033C598.529 206.597 599.506 207.129 600.304 207.884C600.346 208.63 600.44 208.974 599.88 209.556C598.927 210.546 595.683 211.688 594.335 212.126C594.916 214.722 592.27 218.299 593.52 220.519C591.745 222.422 582.718 224.271 582.472 226.554C580.556 225.957 578.798 227.483 576.873 227.833C575.448 229.253 572.42 231.32 570.47 231.852C569.876 233.353 567.186 235.363 565.742 236.2C566.881 237.862 570.437 239.141 570.937 240.672C569.556 241.392 567.859 241.675 567.048 242.993L567.085 243.621C567.466 245.216 567.492 246.114 568.677 247.294L568.677 246.99C569.951 248.883 571.849 251.164 571.379 253.609C570.747 256.898 568.386 259.546 567.89 262.95L568.63 263.268C567.431 265.478 563.728 266.701 561.903 268.537C559.23 271.225 558.035 277.12 554.802 279L893.236 279C893.287 278.912 893.337 278.823 893.381 278.731C893.406 278.679 893.429 278.626 893.455 278.574C893.621 278.235 893.789 277.893 893.865 277.521C894.734 273.255 894.001 261.335 894.002 256.371L894.008 201.529L894.007 69.8447C894.005 47.8015 894.374 25.6906 893.984 3.65386C893.96 2.28209 894.007 1.195 893.236 0L870.302 0ZM0 0L0 279L47.066 279L59.9167 279L64.9739 279C66.8219 275.209 68.9374 275.894 71.3011 273.23C84.9456 270.038 98.32 266.073 111.893 262.626L185.968 244.325L220.69 235.773C236.227 232.096 251.386 228.928 266.08 222.416C251.809 224.242 238.02 227.858 224.048 231.168C199.995 236.867 175.946 243.1 151.772 248.234C139.319 250.878 126.737 250.961 114.211 252.854C107.592 253.855 101.163 255.983 94.5797 257.208C89.5862 258.138 84.4543 258.345 79.4281 259.144C72.4999 260.245 27.9742 268.931 24.9034 267.343L26.3474 266.656L26.4282 265.648C28.1296 263.061 35.9114 261.256 38.9664 260.208C35.3422 260.013 31.7406 259.784 28.1318 259.39C33.4128 256.273 39.7747 255.139 45.4558 252.87C52.0862 241.828 66.7721 243.783 71.1295 238.976C70.1803 238.871 69.2591 238.722 68.3233 238.532L68.1765 237.65C66.9041 237.04 63.4658 238.232 61.9486 238.521C72.0956 233.39 132.275 216.93 135.13 211.758C135.462 211.157 139.447 210.041 140.22 209.788C164.109 201.944 188.758 197.996 213.109 192.074C221.072 190.137 228.783 187.252 236.735 185.341C245.733 183.178 254.569 182.15 263.357 179.02C256.119 178.615 249.864 181.113 242.986 182.93C239.283 183.908 235.498 184.634 231.745 185.397C230.146 184.879 229.902 184.848 228.948 183.408Q273 171.384 316.808 158.497C327.049 155.456 337.837 153.139 347.871 149.588C349.193 149.121 350.333 148.672 351.26 147.568C342.182 149.415 332.682 150.995 323.445 151.599C325.264 150.994 328.769 150.245 329.781 148.589C330.478 147.449 332.998 143.551 332.743 142.474C332.096 142.496 315.248 148.76 311.979 149.745C301.338 152.952 290.55 155.368 279.775 158.05C265.335 161.642 250.946 165.346 236.431 168.63C232.492 169.522 224.43 172.065 220.805 171.928C219.725 171.887 219.331 171.158 218.667 170.417C214.21 169.954 209.424 171.245 204.793 170.994C202.119 173.075 199.757 175.005 196.684 176.516C199.133 173.699 201.823 171.749 204.88 169.655C196.473 172.916 187.042 174.058 178.291 176.199C166.613 179.055 154.627 183.836 142.547 184.41C146.009 182.286 149.77 180.65 153.261 178.516C147.253 179.388 141.479 180.281 135.387 180.017C139.299 178.438 143.77 178.321 147.785 176.873L147.98 176.422L146.029 175.391L145.931 174.965C156.63 171.013 167.881 168.227 178.773 164.811C187.518 162.068 196.083 158.632 204.858 156.039C214.514 153.185 224.077 151.469 233.455 147.58C229.377 148.155 225.395 148.83 221.425 149.938C214.051 151.997 206.601 154.985 198.935 155.605C206.79 150.239 216.727 147.625 225.807 145.103C222.967 145.085 221.966 145.108 219.606 143.535C215.822 141.012 206.495 143.713 202.141 144.569C203.602 143.505 205.274 142.538 205.672 140.696C200.028 137.148 172.063 149.671 164.561 150.125C163.595 150.183 161.821 150.281 161.073 149.612C161.917 147.709 167.093 146.436 169.051 145.679C174.657 143.512 180.001 141.181 185.794 139.465C193.511 137.179 201.458 135.665 209.134 133.249C218.223 130.388 227.012 126.718 236.202 124.135C244.711 121.742 257.272 121.412 264.259 115.982C264.833 115.536 265.065 115.466 265.157 114.723C261.063 112.119 234.331 119.604 228.054 120.727C223.968 121.458 219.763 120.933 215.671 121.474C213.002 121.827 210.591 123.117 207.877 123.375L207.648 122.986L208.513 121.592C207.128 121.031 193.204 125.168 190.762 125.727Q176.152 129.086 161.247 130.693C173.161 124.678 186.564 124.896 199.122 121.188C201.004 120.632 203.117 119.98 204.813 118.972C207.77 117.213 210.182 114.261 213.618 113.434C216.886 112.647 220.675 112.837 224.042 112.539C229.389 112.065 234.466 110.469 239.484 108.644Q236.039 107.796 232.583 106.992C235.291 105.84 237.707 104.415 240.201 102.871C232.168 104.692 224.301 107.31 216.232 108.93C209.412 110.3 202.44 110.969 195.569 112.054C188.663 113.145 181.801 114.663 174.951 116.061L143.83 122.357C137.728 123.552 131.591 124.936 125.409 125.611C130.382 123.514 132.783 120.578 137.246 118.13C143.29 114.816 150.277 113.045 156.541 110.118C159.141 108.904 161.023 106.646 163.618 105.488C172.65 101.454 183.213 99.5196 192.684 96.5943C201.576 93.8479 210.167 90.2072 219.134 87.6814C227.615 85.2928 264.778 79.3872 269.002 75.0186C268.35 74.8512 267.717 74.7118 267.117 74.3965C272.707 72.2768 278.592 70.8341 284.346 69.227Q301.299 64.4707 318.363 60.1272C326.951 57.9675 335.834 56.1185 344.221 53.2785C346.084 52.6478 347.946 52.0304 349.39 50.6388C323.626 51.0462 297.936 60.9436 272.885 66.1576C261.971 68.4291 250.761 68.5041 239.803 70.9668C234.767 72.0985 214.262 78.5322 211.186 78.128Q211.903 77.2228 212.565 76.2772C211.692 75.9686 210.819 75.9521 209.903 75.9056L209.907 75.5554C218.048 69.879 238.467 66.2672 248.515 62.623C251.028 61.7115 252.88 59.4808 255.222 58.2112C258.825 56.2576 263.638 55.4743 267.608 54.3684C261.661 54.4588 255.854 54.9422 249.946 55.5985L250.073 55.5423C264.207 49.3699 279.833 47.9377 294.637 43.9552C303.243 41.6402 311.505 38.1304 320.069 35.6589C332.984 31.9318 346.398 29.2229 359.019 24.5522C361.876 23.4952 364.096 21.2863 366.9 20.2252C369.842 19.112 374.711 19.3497 376.596 16.5469C367.794 17.4958 359.636 20.0238 351.116 22.2455C336.212 26.1321 321.373 30.4244 306.423 34.0978C298.074 36.1494 289.769 38.3396 281.124 38.5037C290.017 35.2447 299.842 33.705 309.081 31.6011C312.57 30.8067 316.412 30.2282 319.693 28.7783C320.595 28.3796 321.491 27.9735 321.865 26.9962L321.329 26.2943C315.37 24.4214 310.534 28.7573 304.935 29.0754L304.539 28.6277C305.2 26.8668 306.865 25.101 308.465 24.116C312.736 21.4854 317.795 20.7863 322.416 19.0313C327.319 17.1691 332.069 14.6182 337.113 13.1711C341.427 11.9334 346.389 11.7033 350.428 9.76577C351.167 8.98819 351.173 7.50028 351.315 6.47065C349.817 3.99845 328.663 9.64514 323.716 7.5378L323.458 6.87468L324.522 5.43377C320.066 4.759 314.257 6.00062 309.669 6.12143C312.527 5.2785 320.474 3.28352 322.217 1.08184L318.425 0L0 0ZM462.104 30.3451C447.576 32.0452 434.273 37.7158 425.031 49.42C416.745 59.9133 412.459 73.8118 414.039 87.1468Q414.178 88.3598 414.377 89.5645Q414.575 90.7692 414.832 91.9628Q415.09 93.1564 415.405 94.3359Q415.72 95.5155 416.092 96.6782Q416.465 97.841 416.894 98.9841Q417.323 100.127 417.807 101.248Q418.291 102.369 418.829 103.465Q419.368 104.56 419.959 105.629Q420.55 106.697 421.193 107.735Q421.836 108.773 422.529 109.778Q423.222 110.783 423.963 111.753Q424.704 112.723 425.492 113.656Q426.279 114.589 427.112 115.482Q427.944 116.375 428.819 117.227Q429.694 118.078 430.61 118.886Q431.525 119.693 432.479 120.455Q433.535 121.276 434.631 122.045Q435.726 122.813 436.858 123.527Q437.99 124.24 439.156 124.897Q440.321 125.555 441.518 126.154Q442.714 126.753 443.939 127.292Q445.163 127.832 446.413 128.311Q447.662 128.789 448.934 129.206Q450.205 129.623 451.495 129.977Q452.786 130.33 454.092 130.62Q455.398 130.91 456.717 131.136Q458.036 131.361 459.364 131.522Q460.693 131.682 462.027 131.777Q463.362 131.872 464.7 131.901Q466.037 131.93 467.375 131.894Q468.712 131.857 470.046 131.755Q471.381 131.653 472.708 131.485C474.603 131.25 478.159 130.784 479.599 129.461C484.723 128.23 493.978 124.319 496.805 119.761C497.073 119.329 497.296 118.882 497.49 118.413C492.517 122.372 483.729 121.944 477.669 121.25Q476.496 121.126 475.331 120.943Q474.165 120.76 473.011 120.52Q471.856 120.28 470.714 119.983Q469.573 119.686 468.447 119.332Q467.322 118.979 466.216 118.57Q465.109 118.161 464.024 117.698Q462.94 117.234 461.879 116.718Q460.819 116.201 459.785 115.632Q458.752 115.064 457.748 114.444Q456.744 113.825 455.772 113.157Q454.8 112.488 453.862 111.773Q452.924 111.057 452.023 110.296Q451.122 109.534 450.26 108.729Q449.398 107.924 448.577 107.077Q447.756 106.23 446.978 105.343Q446.2 104.456 445.467 103.532Q444.767 102.65 444.111 101.735Q443.455 100.819 442.845 99.8725Q442.236 98.9259 441.673 97.9503Q441.111 96.9748 440.597 95.9727Q440.083 94.9706 439.62 93.9443Q439.156 92.9181 438.743 91.8703Q438.331 90.8225 437.97 89.7556Q437.61 88.6887 437.302 87.6053Q436.995 86.5219 436.741 85.4247Q436.488 84.3275 436.289 83.2191Q436.089 82.1108 435.945 80.9939Q435.8 79.8771 435.711 78.7544Q435.622 77.6318 435.588 76.5062Q435.555 75.3805 435.576 74.2546Q435.598 73.1286 435.675 72.0051Q435.753 70.8816 435.885 69.7633C437.228 58.3901 442.779 46.9381 451.892 39.8237C455.988 36.6254 462.482 34.275 465.722 30.3342L462.104 30.3451ZM766.495 0C765.679 1.38459 763.608 1.73391 762.107 2.12215L653.092 30.3424C667.89 30.0528 686.664 24.0012 701.309 20.3602C711.751 17.7639 722.3 15.9205 732.737 13.4384C743.708 10.829 754.318 7.67003 765.419 5.45201C772.207 4.09593 778.912 2.82382 785.812 2.17745C791.292 1.66404 797.802 2.12076 803.069 0.649558L803.537 0L766.495 0ZM493.186 53.9203C494.074 56.0808 493.684 58.4704 492.819 60.5842C492.393 61.6258 491.76 62.754 490.853 63.4394C486.292 64.033 481.515 63.8121 476.917 63.8397C480.963 64.9022 486.063 66.5386 488.334 70.3985C489.329 72.0914 489.604 73.9735 489.085 75.8721C488.408 78.3445 486.722 80.748 484.853 82.4613C488.407 81.324 491.94 77.7142 494.844 75.3694C498.108 75.3137 501.537 77.7518 503.778 79.9389C504.202 80.3524 504.431 80.7789 504.601 81.3384C505.26 77.9047 504.482 74.9295 502.538 72.0459C501.954 71.1788 501.306 70.5429 500.448 69.9373C503.614 68.748 507.772 66.1402 509.266 62.9809C509.34 62.8242 509.351 62.7788 509.416 62.601C505.804 62.9633 502.097 62.8885 498.466 62.9453C498.984 61.1435 498.027 58.4313 497.137 56.8241C496.491 55.6581 495.636 54.4442 494.396 53.8828L493.186 53.9203ZM647.08 162.899C640.39 164.676 633.95 167.132 627.392 169.324C622.522 170.953 617.501 172.263 612.782 174.297C616.766 174.199 620.671 173.777 624.625 173.306C629.042 172.199 646.582 168.462 649.262 166.885C647.271 166.175 647.545 165.342 646.631 163.67C646.608 163.628 646.584 163.587 646.561 163.545L647.08 162.899Z"/>
	<path fill="#23614D" transform="matrix(0.990138 0 0 0.98983 118.817 0)" d="M562.496 243.714C563.91 242.361 563.148 241.74 564.226 240.372L564.077 240.011C561.232 239.041 558.679 239.45 555.798 240.004C554.468 240.259 552.604 240.831 551.446 240.045C551.738 239.5 552.07 239.008 552.51 238.569C555.803 235.286 561.932 234.783 566.205 233.437C567.762 232.947 568.753 231.874 570.47 231.852C569.876 233.353 567.186 235.363 565.742 236.2C565.615 238.417 565.837 241.345 564.29 243.093C563.687 243.391 563.178 243.643 562.496 243.714Z"/>
	<path fill="#CDDEDA" fill-opacity="0.87058824" transform="matrix(0.990138 0 0 0.98983 118.817 0)" d="M647.08 162.899L646.561 163.545C646.584 163.587 646.608 163.628 646.631 163.67C647.545 165.342 647.271 166.175 649.262 166.885C646.582 168.462 629.042 172.199 624.625 173.306C620.671 173.777 616.766 174.199 612.782 174.297C617.501 172.263 622.522 170.953 627.392 169.324C633.95 167.132 640.39 164.676 647.08 162.899Z"/>
	<path fill="#338465" transform="matrix(0.990138 0 0 0.98983 118.817 0)" d="M576.873 227.833C577.544 225.95 576.4 225.969 576.091 224.274C578.948 218.146 588.574 215.032 594.335 212.126C594.916 214.722 592.27 218.299 593.52 220.519C591.745 222.422 582.718 224.271 582.472 226.554C580.556 225.957 578.798 227.483 576.873 227.833Z"/>
	<defs>
		<linearGradient id="gradient_0" gradientUnits="userSpaceOnUse" x1="542.48273" y1="257.09" x2="563.64233" y2="269.21872">
			<stop offset="0" stop-color="#205246"/>
			<stop offset="1" stop-color="#5D9384"/>
		</linearGradient>
	</defs>
	<path fill="url(#gradient_0)" transform="matrix(0.990138 0 0 0.98983 118.817 0)" d="M562.496 243.714C563.178 243.643 563.687 243.391 564.29 243.093C565.837 241.345 565.615 238.417 565.742 236.2C566.881 237.862 570.437 239.141 570.937 240.672C569.556 241.392 567.859 241.675 567.048 242.993L567.085 243.621C567.466 245.216 567.492 246.114 568.677 247.294L568.677 246.99C569.951 248.883 571.849 251.164 571.379 253.609C570.747 256.898 568.386 259.546 567.89 262.95L568.63 263.268C567.431 265.478 563.728 266.701 561.903 268.537C559.23 271.225 558.035 277.12 554.802 279L530.123 279C530.095 278.421 530.085 277.825 530.164 277.25C530.472 275.008 531.666 272.858 533.142 271.183C537.537 266.197 544.063 263.528 548.661 258.736C552.737 254.488 556.423 246.412 560.67 243.006L561.041 243.447C560.415 246.294 558.22 249.239 556.512 251.566L555.793 250.604L556.661 251.423C554.876 253.313 553.81 255.512 551.772 257.269L551.635 257.386C554.945 256.022 557.822 252.554 559.832 249.646C560.848 248.177 562.814 245.501 562.496 243.714Z"/>
	<path fill="#54B57E" fill-opacity="0.98431373" transform="matrix(0.990138 0 0 0.98983 118.817 0)" d="M47.066 279C51.2752 277.06 55.6306 276.146 60.1352 275.187L59.9167 279L47.066 279Z"/>
	<path fill="#23614D" transform="matrix(0.990138 0 0 0.98983 118.817 0)" d="M60.1352 275.187C63.85 274.484 67.5579 273.768 71.3011 273.23C68.9374 275.894 66.8219 275.209 64.9739 279L59.9167 279L60.1352 275.187Z"/>
	<path fill="#338465" transform="matrix(0.990138 0 0 0.98983 118.817 0)" d="M142.473 206.193C150.016 202.215 159.301 200.458 167.549 198.442L200.436 190.698C209.971 188.431 219.388 185.518 228.948 183.408C229.902 184.848 230.146 184.879 231.745 185.397C224.79 186.699 217.802 188.797 210.894 190.41L168.68 200.236C159.746 202.396 151.674 205.034 142.473 206.193Z"/>
	<path fill="#54B57E" transform="matrix(0.990138 0 0 0.98983 118.817 0)" d="M707.469 133.974C709.377 134.026 711.249 133.968 713.023 134.761L713.699 135.501C713.079 136.395 712.492 136.725 711.389 136.907C709.933 137.148 708.096 136.861 706.624 136.734L705.722 136.407C705.46 135.462 705.526 135.271 705.901 134.364L707.469 133.974Z"/>
	<path fill="#79C1A7" transform="matrix(0.990138 0 0 0.98983 118.817 0)" d="M574.815 248.828C576.48 249.155 578.417 249.503 579.45 251.01C580.659 252.774 580.883 255.069 582.174 256.929C579.962 257.94 577.601 258.622 575.289 259.366C575.963 257.023 578.082 256.421 578.99 254.379C578.649 252.355 575.28 251.306 574.815 248.828Z"/>
	<path fill="#338465" transform="matrix(0.990138 0 0 0.98983 118.817 0)" d="M688.267 145.887L688.188 146.513C692 146.198 699.267 142.812 702.767 144.703C701.391 145.926 683.845 150.943 681.75 151.127C682.235 150.129 682.413 149.131 682.61 148.046C682.922 147.873 683.183 147.748 683.549 147.755C685.546 147.789 686.501 146.356 688.267 145.887Z"/>
	<path fill="#C0E3D3" fill-opacity="0.98823529" transform="matrix(0.990138 0 0 0.98983 118.817 0)" d="M584.884 228.758C587.586 228.733 599.339 228.888 601.016 229.342L601.011 229.918C598.414 230.966 595.529 231.317 592.868 232.279C589.67 233.435 586.7 235.295 583.444 236.217L583.058 236.044C583.044 233.694 584.417 231.125 584.884 228.758Z"/>
	<path fill="#338465" transform="matrix(0.990138 0 0 0.98983 118.817 0)" d="M672.445 151.009C675.85 150.258 679.153 148.825 682.61 148.046C682.413 149.131 682.235 150.129 681.75 151.127C681.124 151.944 658.24 159.903 655.638 160.375C656.522 156.058 669.852 155.979 672.445 151.009Z"/>
	<path fill="#338465" transform="matrix(0.990138 0 0 0.98983 118.817 0)" d="M647.08 162.899L647.858 162.952C647.902 163.003 647.946 163.053 647.988 163.105C648.685 163.959 648.775 165.076 648.94 166.129C652.102 166.208 655.241 165.674 658.402 165.607C655.443 168.899 643.505 170.628 639.117 173.293C639.168 173.581 639.15 173.818 639.36 174.03C636.93 173.836 632.891 172.625 630.878 174.358C630.74 174.477 630.61 174.596 630.469 174.713C628.648 174.87 626.43 173.731 624.625 173.306C629.042 172.199 646.582 168.462 649.262 166.885C647.271 166.175 647.545 165.342 646.631 163.67C646.608 163.628 646.584 163.587 646.561 163.545L647.08 162.899Z"/>
	<path fill="#4D9877" transform="matrix(0.990138 0 0 0.98983 118.817 0)" d="M567.085 243.621C568.368 244.435 574.394 247.823 574.815 248.828C575.28 251.306 578.649 252.355 578.99 254.379C578.082 256.421 575.963 257.023 575.289 259.366C574.125 260.945 570.487 262.687 568.63 263.268L567.89 262.95C568.386 259.546 570.747 256.898 571.379 253.609C571.849 251.164 569.951 248.883 568.677 246.99L568.677 247.294C567.492 246.114 567.466 245.216 567.085 243.621Z"/>
	<path fill="#4D9877" transform="matrix(0.990138 0 0 0.98983 118.817 0)" d="M639.36 174.03C645.261 173.992 651.109 173.805 656.976 173.132C661.57 172.606 666.186 171.69 670.79 171.35C668.658 174.866 641.42 181.814 635.944 183.269C637.101 181.806 637.684 181.828 639.47 181.423C640.518 180.644 641.315 179.77 641.691 178.484C642.003 177.417 641.847 176.901 641.364 175.965C638.131 174.842 633.933 175.432 630.469 174.713C630.61 174.596 630.74 174.477 630.878 174.358C632.891 172.625 636.93 173.836 639.36 174.03Z"/>
	<defs>
		<linearGradient id="gradient_1" gradientUnits="userSpaceOnUse" x1="690.4892" y1="137.53448" x2="704.40125" y2="134.642">
			<stop offset="0" stop-color="#297F55"/>
			<stop offset="1" stop-color="#46A36D"/>
		</linearGradient>
	</defs>
	<path fill="url(#gradient_1)" transform="matrix(0.990138 0 0 0.98983 118.817 0)" d="M668.286 137.996C675.697 136.553 702.028 131.733 707.469 133.974L705.901 134.364C705.526 135.271 705.46 135.462 705.722 136.407L706.624 136.734C700.59 139.237 693.734 140.927 687.245 141.673L695.959 142.693L695.812 142.677L696.656 142.799C693.803 143.679 690.913 144.474 688.267 145.887C686.501 146.356 685.546 147.789 683.549 147.755C683.183 147.748 682.922 147.873 682.61 148.046C679.153 148.825 675.85 150.258 672.445 151.009C674.368 149.195 683.517 147.137 683.852 146.484C684.384 145.446 683.992 143.821 684.678 142.671C686.041 140.386 689.534 141.126 690.81 139.029C690.927 138.215 690.874 137.63 690.581 136.86C690.467 136.56 690.292 135.897 690.105 135.691C688.697 134.134 671.85 139.602 668.286 137.996Z"/>
	<path fill="#CDDEDA" fill-opacity="0.83137256" transform="matrix(0.990138 0 0 0.98983 118.817 0)" d="M576.873 227.833C578.798 227.483 580.556 225.957 582.472 226.554C583.16 227.375 583.891 228.292 584.884 228.758C584.417 231.125 583.044 233.694 583.058 236.044L583.444 236.217C581.944 238.146 574.267 240.268 571.791 240.591Q571.365 240.646 570.937 240.672C570.437 239.141 566.881 237.862 565.742 236.2C567.186 235.363 569.876 233.353 570.47 231.852C572.42 231.32 575.448 229.253 576.873 227.833Z"/>
	<path fill="#79C1A7" transform="matrix(0.990138 0 0 0.98983 118.817 0)" d="M597.593 206.033C600.076 205.85 601.779 207.573 604.095 207.796C603.457 209.148 600.496 210.08 600.846 211.528C606.291 211.787 624.277 209.552 627.481 210.602C626.738 211.051 595.804 220.052 593.52 220.519C592.27 218.299 594.916 214.722 594.335 212.126C595.683 211.688 598.927 210.546 599.88 209.556C600.44 208.974 600.346 208.63 600.304 207.884C599.506 207.129 598.529 206.597 597.593 206.033Z"/>
	<path fill="#79C1A7" transform="matrix(0.990138 0 0 0.98983 118.817 0)" d="M609.465 193.511L609.812 194.305C618.224 194.115 626.957 191.757 635.416 192.644C634.163 194.051 605.06 198.416 604.195 202.031C604.894 203.325 606.167 203.332 605.993 204.839L605.361 205.596L605.43 206.738C605.004 207.138 604.62 207.527 604.095 207.796C601.779 207.573 600.076 205.85 597.593 206.033L592.003 203.421L591.888 202.209C592.058 202.015 592.005 202.089 592.142 201.885C592.622 201.169 593.114 200.784 592.943 199.924Q591.276 199.73 589.617 199.471L589.049 198.592C593.925 195.619 603.678 194.242 609.465 193.511ZM592.003 203.421L597.593 206.033C600.076 205.85 601.779 207.573 604.095 207.796C604.62 207.527 605.004 207.138 605.43 206.738L605.361 205.596L605.281 204.842C604.818 204.49 604.342 204.169 603.861 203.844C603.36 203.504 602.884 203.218 602.279 203.101C599.946 202.651 594.026 202.109 592.003 203.421Z"/>
	<path fill="#C0E3D3" fill-opacity="0.98823529" transform="matrix(0.990138 0 0 0.98983 118.817 0)" d="M592.003 203.421C594.026 202.109 599.946 202.651 602.279 203.101C602.884 203.218 603.36 203.504 603.861 203.844C604.342 204.169 604.818 204.49 605.281 204.842L605.361 205.596L605.43 206.738C605.004 207.138 604.62 207.527 604.095 207.796C601.779 207.573 600.076 205.85 597.593 206.033L592.003 203.421Z"/>
	<path fill="#23614D" transform="matrix(0.990138 0 0 0.98983 118.817 0)" d="M589.049 198.592L589.181 198.644C594.371 200.645 604.522 195.483 606.613 197.127C606.543 198.008 606.536 198.245 605.84 198.819C602.589 201.497 595.914 202.166 591.888 202.209C592.058 202.015 592.005 202.089 592.142 201.885C592.622 201.169 593.114 200.784 592.943 199.924Q591.276 199.73 589.617 199.471L589.049 198.592Z"/>
</svg>